<svg width="22" height="22" viewBox="0 0 22 22" fill="none" xmlns="http://www.w3.org/2000/svg">
<path d="M9.55079 12.5182L9.52246 12.5846H10.4216L10.3927 12.5182L9.96881 11.5537L9.55079 12.5182Z" fill="#C91C2E"/>
<path d="M17.2616 0H4.73837C2.12141 0 0 2.12141 0 4.73837V17.2617C0 19.8786 2.12141 22 4.73837 22H17.2617C19.8786 22 22 19.8786 22 17.2617V4.73837C22 2.12141 19.8786 0 17.2616 0ZM4.77915 13.7056H4.18442V12.5361H2.84274V13.7058H2.24829V10.8256L2.84302 10.8259V11.9878H4.1847V10.8259H4.77915V13.7056ZM4.73774 2.06225C4.7376 1.71808 5.01732 1.43884 5.36275 1.43835V1.43807C5.70824 1.43759 5.9888 1.71627 5.98943 2.06058V2.06169C5.98943 2.22281 5.92811 2.3696 5.82747 2.48027C7.04582 4.18874 8.90602 5.17385 10.9363 5.17337C12.9725 5.17003 14.8462 4.16493 16.0633 2.44303C15.9815 2.33772 15.9328 2.20569 15.9327 2.06225C15.9326 1.71808 16.2123 1.43884 16.5577 1.43835V1.43807C16.9033 1.43745 17.184 1.7162 17.1847 2.06058V2.06169C17.1847 2.406 16.9047 2.68517 16.5591 2.68531C16.5513 2.68531 16.5436 2.6851 16.5358 2.68489C15.3275 4.69487 13.2662 5.69363 10.9349 5.69704C8.59546 5.69676 6.54922 4.70503 5.3427 2.68496C5.00695 2.67403 4.73795 2.39953 4.73767 2.06232L4.73774 2.06225ZM8.12385 12.4512C8.12385 13.2764 7.66191 13.7498 6.85636 13.7498C6.05081 13.7498 5.59995 13.2853 5.59995 12.475V10.8281H6.19468V12.4551C6.19468 12.9362 6.43243 13.1931 6.86409 13.1931C7.29575 13.1931 7.52995 12.9431 7.52995 12.475V10.8264L8.12385 10.8261V12.4512ZM10.9033 13.7031L10.6405 13.1039H9.29995L9.2822 13.1459L9.03303 13.7031H8.42668L9.71692 10.8251H10.2366L10.2478 10.842L11.5264 13.7031H10.9033ZM14.6453 13.7051H14.1492L13.4836 11.8137L12.8169 13.7051H12.325L11.305 10.8257H11.937L12.5842 12.8048L13.2492 10.8243L13.7336 10.8245L14.3986 12.8051L15.0472 10.8259H15.6633L14.6453 13.7051ZM18.3548 13.7037H16.1428V10.8276L18.2984 10.8279V11.3523H16.729V11.9412H17.8098V12.4662H16.729V13.1792H18.3548V13.7037H18.3548ZM19.6484 13.7015H19.062V10.8251L19.6484 10.8254V13.7015Z" fill="#C91C2E"/>
</svg>
