<svg width="22" height="22" viewBox="0 0 22 22" fill="none" xmlns="http://www.w3.org/2000/svg">
<path d="M2.75016 7.33333H15.5835C15.8266 7.33333 16.0598 7.23676 16.2317 7.06485C16.4036 6.89294 16.5002 6.65978 16.5002 6.41667C16.5002 6.17355 16.4036 5.94039 16.2317 5.76849C16.0598 5.59658 15.8266 5.5 15.5835 5.5H2.75016C2.50705 5.5 2.27389 5.59658 2.10198 5.76849C1.93007 5.94039 1.8335 6.17355 1.8335 6.41667C1.8335 6.65978 1.93007 6.89294 2.10198 7.06485C2.27389 7.23676 2.50705 7.33333 2.75016 7.33333ZM19.2502 14.6667H8.25016C8.00705 14.6667 7.77389 14.7632 7.60198 14.9352C7.43007 15.1071 7.3335 15.3402 7.3335 15.5833C7.3335 15.8264 7.43007 16.0596 7.60198 16.2315C7.77389 16.4034 8.00705 16.5 8.25016 16.5H19.2502C19.4933 16.5 19.7264 16.4034 19.8983 16.2315C20.0703 16.0596 20.1668 15.8264 20.1668 15.5833C20.1668 15.3402 20.0703 15.1071 19.8983 14.9352C19.7264 14.7632 19.4933 14.6667 19.2502 14.6667ZM19.2502 10.0833H2.75016C2.50705 10.0833 2.27389 10.1799 2.10198 10.3518C1.93007 10.5237 1.8335 10.7569 1.8335 11C1.8335 11.2431 1.93007 11.4763 2.10198 11.6482C2.27389 11.8201 2.50705 11.9167 2.75016 11.9167H19.2502C19.4933 11.9167 19.7264 11.8201 19.8983 11.6482C20.0703 11.4763 20.1668 11.2431 20.1668 11C20.1668 10.7569 20.0703 10.5237 19.8983 10.3518C19.7264 10.1799 19.4933 10.0833 19.2502 10.0833Z" fill="#F9FAFA"/>
</svg>
