<svg width="25" height="24" viewBox="0 0 25 24" fill="none" xmlns="http://www.w3.org/2000/svg">
<path d="M12.373 23.5C18.7243 23.5 23.873 18.3513 23.873 12C23.873 5.64873 18.7243 0.5 12.373 0.5C6.02177 0.5 0.873047 5.64873 0.873047 12C0.873047 18.3513 6.02177 23.5 12.373 23.5Z" stroke="#ABB3BA"/>
<path d="M7.72656 16H6.54492V10.292L4.80176 10.8877V9.88672L7.57519 8.86621H7.72656V16ZM14.6748 10.7656C14.6748 11.1139 14.5853 11.4248 14.4062 11.6982C14.2272 11.9684 13.9831 12.1816 13.6738 12.3379C14.0449 12.5104 14.3297 12.7464 14.5283 13.0459C14.7301 13.3454 14.831 13.6839 14.831 14.0615C14.831 14.6865 14.6194 15.1829 14.1963 15.5508C13.7731 15.9154 13.2099 16.0977 12.5068 16.0977C11.8004 16.0977 11.234 15.9137 10.8076 15.5459C10.3844 15.1781 10.1728 14.6833 10.1728 14.0615C10.1728 13.6807 10.2737 13.3389 10.4756 13.0361C10.6774 12.7334 10.9606 12.5007 11.3252 12.3379C11.0192 12.1816 10.7767 11.9684 10.5976 11.6982C10.4219 11.4248 10.334 11.1139 10.334 10.7656C10.334 10.1602 10.5293 9.68001 10.9199 9.3252C11.3105 8.97038 11.8379 8.79297 12.5019 8.79297C13.1692 8.79297 13.6982 8.97038 14.0888 9.3252C14.4795 9.68001 14.6748 10.1602 14.6748 10.7656ZM13.6445 14.0029C13.6445 13.6514 13.5387 13.3682 13.3271 13.1533C13.1188 12.9352 12.8421 12.8262 12.497 12.8262C12.152 12.8262 11.8753 12.9336 11.667 13.1484C11.4619 13.3633 11.3594 13.6481 11.3594 14.0029C11.3594 14.3512 11.4603 14.6296 11.6621 14.8379C11.8672 15.0462 12.1487 15.1504 12.5068 15.1504C12.8649 15.1504 13.1432 15.0495 13.3418 14.8477C13.5436 14.6458 13.6445 14.3643 13.6445 14.0029ZM13.4931 10.8096C13.4931 10.5003 13.4036 10.2464 13.2246 10.0479C13.0456 9.84603 12.8047 9.74512 12.5019 9.74512C12.1992 9.74512 11.9599 9.84115 11.7842 10.0332C11.6084 10.222 11.5205 10.4808 11.5205 10.8096C11.5205 11.1351 11.6084 11.3939 11.7842 11.5859C11.9632 11.778 12.2041 11.874 12.5068 11.874C12.8095 11.874 13.0488 11.778 13.2246 11.5859C13.4036 11.3939 13.4931 11.1351 13.4931 10.8096ZM18.6982 12.0889H20.5537V13.1729H18.6982V15.2871H17.5459V13.1729H15.6806V12.0889H17.5459V10.1113H18.6982V12.0889Z" fill="#ABB3BA"/>
</svg>
