<svg width="22" height="22" viewBox="0 0 22 22" fill="none" xmlns="http://www.w3.org/2000/svg">
<path fill-rule="evenodd" clip-rule="evenodd" d="M1 11C1 6.80863 1 4.71294 2.05041 3.26718C2.38964 2.80026 2.80026 2.38964 3.26718 2.05041C4.71294 1 6.80863 1 11 1C15.1914 1 17.2871 1 18.7328 2.05041C19.1997 2.38964 19.6104 2.80026 19.9496 3.26718C21 4.71294 21 6.80863 21 11C21 15.1914 21 17.2871 19.9496 18.7328C19.6104 19.1997 19.1997 19.6104 18.7328 19.9496C17.2871 21 15.1914 21 11 21C6.80863 21 4.71294 21 3.26718 19.9496C2.80026 19.6104 2.38964 19.1997 2.05041 18.7328C1 17.2871 1 15.1914 1 11ZM10.9999 5.70566C8.07625 5.70566 5.70581 8.0761 5.70581 10.9998C5.70581 13.9235 8.07625 16.2939 10.9999 16.2939C13.9236 16.2939 16.294 13.9235 16.294 10.9998C16.294 8.0761 13.9236 5.70566 10.9999 5.70566ZM10.9999 14.3086C9.1761 14.3086 7.6911 12.8236 7.6911 10.9998C7.6911 9.17463 9.1761 7.69096 10.9999 7.69096C12.8237 7.69096 14.3087 9.17463 14.3087 10.9998C14.3087 12.8236 12.8237 14.3086 10.9999 14.3086ZM17.3967 5.30896C17.3967 5.69856 17.0808 6.0144 16.6912 6.0144C16.3016 6.0144 15.9858 5.69856 15.9858 5.30896C15.9858 4.91935 16.3016 4.60352 16.6912 4.60352C17.0808 4.60352 17.3967 4.91935 17.3967 5.30896Z" fill="white"/>
</svg>
