<svg width="22" height="22" viewBox="0 0 22 22" fill="none" xmlns="http://www.w3.org/2000/svg">
<path fill-rule="evenodd" clip-rule="evenodd" d="M21 11C21 16.5228 16.5228 21 11 21C5.47715 21 1 16.5228 1 11C1 5.47715 5.47715 1 11 1C16.5228 1 21 5.47715 21 11ZM11.4071 15.3859H10.6223C10.6223 15.3859 8.89048 15.4902 7.36547 13.9024C5.70231 12.1706 4.23345 8.73415 4.23345 8.73415C4.23345 8.73415 4.14878 8.50883 4.24076 8.39991C4.34415 8.27745 4.6258 8.2696 4.6258 8.2696L6.50198 8.2573C6.50198 8.2573 6.67881 8.28689 6.80538 8.37977C6.90966 8.45642 6.96813 8.59974 6.96813 8.59974C6.96813 8.59974 7.27135 9.36661 7.67297 10.0604C8.45677 11.4148 8.82185 11.7111 9.08799 11.566C9.47571 11.3544 9.35948 9.65129 9.35948 9.65129C9.35948 9.65129 9.36661 9.03309 9.16429 8.75786C9.0076 8.54448 8.71204 8.48227 8.58156 8.4648C8.47603 8.45071 8.64929 8.20561 8.8739 8.09562C9.21152 7.9302 9.8078 7.92075 10.5123 7.92806C11.0611 7.93358 11.2191 7.96781 11.4337 8.01968C11.9316 8.13991 11.9161 8.52517 11.8826 9.3564C11.8726 9.60478 11.861 9.89298 11.861 10.2258C11.861 10.3007 11.8588 10.3805 11.8566 10.4627C11.8449 10.8884 11.8316 11.3758 12.1118 11.5569C12.2555 11.6496 12.607 11.5708 13.4862 10.0779C13.903 9.37035 14.2154 8.53842 14.2154 8.53842C14.2154 8.53842 14.2837 8.39011 14.3898 8.32647C14.4983 8.26158 14.6447 8.28155 14.6447 8.28155L16.6191 8.26925C16.6191 8.26925 17.2123 8.19848 17.3084 8.46622C17.4091 8.74734 17.0867 9.40369 16.28 10.4788C15.514 11.4998 15.1418 11.875 15.1768 12.2074C15.2023 12.4497 15.4443 12.6692 15.9078 13.0995C16.8797 14.0017 17.1387 14.4753 17.2003 14.5879C17.2053 14.597 17.209 14.6037 17.2116 14.6082C17.6466 15.3294 16.7293 15.3859 16.7293 15.3859L14.9757 15.4103C14.9757 15.4103 14.5989 15.485 14.103 15.1444C13.8436 14.9664 13.5901 14.6757 13.3485 14.3987C12.9792 13.9753 12.6379 13.584 12.3466 13.6764C11.8578 13.8315 11.8731 14.8846 11.8731 14.8846C11.8731 14.8846 11.8767 15.1096 11.7653 15.2294C11.6442 15.3599 11.4071 15.3859 11.4071 15.3859Z" fill="white"/>
</svg>
