<svg width="1507" height="869" viewBox="0 0 1507 869" fill="none" xmlns="http://www.w3.org/2000/svg">
<path d="M204.375 584.965L357.979 440.851H335.637L182.591 584.965H204.375Z" fill="#BB1917"/>
<path d="M167.529 598.298L160 605.309H184.471L192 598.298H167.529Z" fill="#BB1917"/>
<path d="M1097.37 144.114L1250.98 0H1228.64L1075.59 144.114H1097.37Z" fill="#BB1917"/>
<path d="M1047.53 170.652L1040 177.663H1064.47L1072 170.652H1047.53Z" fill="#BB1917"/>
<path d="M884.529 687.687L877 694.698H901.471L909 687.687H884.529Z" fill="#BB1917"/>
<path d="M89.9411 406.102L97.997 397.919H73.8293L65.7734 406.102H89.9411Z" fill="#BB1917"/>
<path d="M85.6037 386.588L77.5479 394.142H101.716L110.391 386.588H85.6037Z" fill="#BB1917"/>
<path d="M150.671 348.82L320.464 188.936H296.296L126.503 348.82H150.671Z" fill="#BB1917"/>
<path d="M97.9973 375.258L89.9414 382.812H114.109L122.165 375.258H97.9973Z" fill="#BB1917"/>
<path d="M61.4362 409.879L54 416.803H78.7873L85.6039 409.879H61.4362Z" fill="#BB1917"/>
<path d="M110.391 363.928L102.335 371.481H126.503L134.559 363.928H110.391Z" fill="#BB1917"/>
<path d="M122.165 352.597L114.109 360.151H138.277L146.953 352.597H122.165Z" fill="#BB1917"/>
<path d="M279.281 859.852L285.981 853.047H265.881L259.182 859.852H279.281Z" fill="#BB1917"/>
<path d="M275.673 843.624L268.974 849.906H289.073L296.288 843.624H275.673Z" fill="#BB1917"/>
<path d="M329.788 812.213L471 679.242H450.901L309.688 812.213H329.788Z" fill="#BB1917"/>
<path d="M285.981 834.2L279.281 840.483H299.381L306.081 834.2H285.981Z" fill="#BB1917"/>
<path d="M255.574 862.993L249.39 868.752H270.005L275.674 862.993H255.574Z" fill="#BB1917"/>
<path d="M296.288 824.777L289.588 831.059H309.687L316.387 824.777H296.288Z" fill="#BB1917"/>
<path d="M306.081 815.354L299.381 821.636H319.48L326.696 815.354H306.081Z" fill="#BB1917"/>
<path d="M1294.92 400.551L1302.32 393.036H1280.12L1272.73 400.551H1294.92Z" fill="#BB1917"/>
<path d="M1290.94 382.631L1283.54 389.568H1305.73L1313.7 382.631H1290.94Z" fill="#BB1917"/>
<path d="M1350.69 347.949L1506.61 201.126H1484.42L1328.49 347.949H1350.69Z" fill="#BB1917"/>
<path d="M1302.32 372.227L1294.92 379.163H1317.11L1324.51 372.227H1302.32Z" fill="#BB1917"/>
<path d="M1268.74 404.019L1261.91 410.377H1284.68L1290.94 404.019H1268.74Z" fill="#BB1917"/>
<path d="M1313.7 361.822L1306.3 368.758H1328.49L1335.89 361.822H1313.7Z" fill="#BB1917"/>
<path d="M1324.51 351.417L1317.11 358.354H1339.31L1347.27 351.417H1324.51Z" fill="#BB1917"/>
<path d="M669 522.114C687.937 522.114 703 537.852 703 556.65C703 575.449 687.506 591.187 669 591.187C650.063 591.187 635 575.449 635 556.65C635 537.852 650.494 522.114 669 522.114ZM669 584.63C684.063 584.63 696.544 571.952 696.544 556.65C696.544 541.349 684.063 528.671 669 528.671C653.937 528.671 641.456 541.349 641.456 556.65C641.456 571.952 653.937 584.63 669 584.63Z" fill="#BB1917"/>
<path d="M34 659.245C49.5949 659.245 62 672.206 62 687.687C62 703.168 49.2405 716.129 34 716.129C18.4051 716.129 6 703.168 6 687.687C6 672.206 18.7595 659.245 34 659.245ZM34 710.728C46.4051 710.728 56.6835 700.288 56.6835 687.687C56.6835 675.086 46.4051 664.645 34 664.645C21.5949 664.645 11.3165 675.086 11.3165 687.687C11.3165 700.288 21.5949 710.728 34 710.728Z" fill="#BB1917"/>
<path d="M508.955 715.374L517 723.546L525.045 715.374C526.721 713.672 529.067 713.672 530.743 715.374C532.419 717.077 532.419 719.46 530.743 721.163L522.698 729.334L530.743 737.506C532.419 739.208 532.419 741.592 530.743 743.294C529.067 744.997 526.721 744.997 525.045 743.294L517 735.122L508.955 743.294C507.279 744.997 504.933 744.997 503.257 743.294C501.581 741.592 501.581 739.208 503.257 737.506L511.302 729.334L503.257 721.163C501.581 719.46 501.581 717.077 503.257 715.374C504.933 714.012 507.279 714.012 508.955 715.374Z" fill="#30343D"/>
<path d="M97.8827 183.273L107 192.534L116.117 183.273C118.017 181.343 120.676 181.343 122.575 183.273C124.475 185.202 124.475 187.903 122.575 189.833L113.458 199.094L122.575 208.355C124.475 210.285 124.475 212.986 122.575 214.915C120.676 216.845 118.017 216.845 116.117 214.915L107 205.654L97.8827 214.915C95.9832 216.845 93.324 216.845 91.4246 214.915C89.5251 212.986 89.5251 210.285 91.4246 208.355L100.542 199.094L91.4246 189.833C89.5251 187.903 89.5251 185.202 91.4246 183.273C93.324 181.729 95.9832 181.729 97.8827 183.273Z" fill="#30343D"/>
<path d="M230.218 603.887L227 607.156L223.782 603.887C223.112 603.206 222.173 603.206 221.503 603.887C220.832 604.568 220.832 605.522 221.503 606.203L224.721 609.471L221.503 612.74C220.832 613.421 220.832 614.374 221.503 615.055C222.173 615.736 223.112 615.736 223.782 615.055L227 611.787L230.218 615.055C230.888 615.736 231.827 615.736 232.497 615.055C233.168 614.374 233.168 613.421 232.497 612.74L229.279 609.471L232.497 606.203C233.168 605.522 233.168 604.568 232.497 603.887C231.827 603.343 230.888 603.343 230.218 603.887Z" fill="#30343D"/>
<path d="M1165.96 148.566L1174 156.737L1182.04 148.566C1183.72 146.863 1186.07 146.863 1187.74 148.566C1189.42 150.268 1189.42 152.652 1187.74 154.354L1179.7 162.526L1187.74 170.697C1189.42 172.4 1189.42 174.783 1187.74 176.486C1186.07 178.188 1183.72 178.188 1182.04 176.486L1174 168.314L1165.96 176.486C1164.28 178.188 1161.93 178.188 1160.26 176.486C1158.58 174.783 1158.58 172.4 1160.26 170.697L1168.3 162.526L1160.26 154.354C1158.58 152.652 1158.58 150.268 1160.26 148.566C1161.93 147.204 1164.28 147.204 1165.96 148.566Z" fill="#30343D"/>
<path d="M1254.78 261.568L1258 264.836L1261.22 261.568C1261.89 260.887 1262.83 260.887 1263.5 261.568C1264.17 262.249 1264.17 263.202 1263.5 263.883L1260.28 267.152L1263.5 270.42C1264.17 271.101 1264.17 272.055 1263.5 272.736C1262.83 273.417 1261.89 273.417 1261.22 272.736L1258 269.467L1254.78 272.736C1254.11 273.417 1253.17 273.417 1252.5 272.736C1251.83 272.055 1251.83 271.101 1252.5 270.42L1255.72 267.152L1252.5 263.883C1251.83 263.202 1251.83 262.249 1252.5 261.568C1253.17 261.023 1254.11 261.023 1254.78 261.568Z" fill="#30343D"/>
<path d="M23.2261 183.857L187 30.4736H163.178L0 183.857H23.2261Z" fill="#BB1917"/>
<path d="M624.631 142.005L558.569 203.986H568.178L634 142.005H624.631Z" fill="#BB1917"/>
<path d="M1057.06 687.687L990.999 749.667H1000.61L1066.43 687.687H1057.06Z" fill="#BB1917"/>
<path d="M1182.04 807.659L1368 632.861H1349.96L1164 807.659H1182.04Z" fill="#BB1917"/>
</svg>
