<svg width="140" height="140" viewBox="0 0 140 140" fill="none" xmlns="http://www.w3.org/2000/svg">
<path d="M70 139.97C108.66 139.97 140 108.637 140 69.985C140 31.3334 108.66 0 70 0C31.3401 0 0 31.3334 0 69.985C0 108.637 31.3401 139.97 70 139.97Z" fill="url(#paint0_linear_1377_1470)"/>
<path d="M101.54 20.6857H38.5402C37.3561 20.6778 36.1822 20.9051 35.0867 21.3544C33.9911 21.8038 32.9958 22.4663 32.1585 23.3034C31.3212 24.1406 30.6586 25.1357 30.2091 26.231C29.7596 27.3263 29.5323 28.5 29.5402 29.6838V127.163C30.9602 128.163 32.4202 129.163 33.9202 130.042V57.4679V32.2333V30.9036C33.9202 29.3471 34.5387 27.8543 35.6395 26.7537C36.7404 25.6531 38.2334 25.0348 39.7902 25.0348H100.22C101.777 25.0348 103.27 25.6531 104.371 26.7537C105.472 27.8543 106.09 29.3471 106.09 30.9036V32.2333V129.962C107.59 129.053 109.09 128.083 110.48 127.073V29.6338C110.467 27.2664 109.521 24.9996 107.848 23.3246C106.174 21.6496 103.908 20.7015 101.54 20.6857Z" fill="#FF4232"/>
<path d="M106.1 129.962V32.2331V30.9034C106.1 30.1319 105.948 29.3679 105.652 28.6552C105.357 27.9426 104.923 27.2951 104.377 26.7501C103.831 26.205 103.183 25.7729 102.469 25.4785C101.756 25.1842 100.992 25.0334 100.22 25.0347H39.83C38.2731 25.0347 36.7801 25.653 35.6792 26.7536C34.5784 27.8542 33.96 29.3469 33.96 30.9034V32.2331V57.4677H106.1V129.962Z" fill="black"/>
<path d="M70.03 139.96C82.74 139.976 95.2127 136.519 106.1 129.962V57.4678H33.96V129.962C44.8478 136.518 57.3202 139.975 70.03 139.96Z" fill="white"/>
<path d="M58.6 43.6907H54.07C54.0391 43.69 54.0087 43.6824 53.9811 43.6686C53.9534 43.6548 53.9292 43.635 53.91 43.6107C53.896 43.5828 53.8886 43.552 53.8886 43.5207C53.8886 43.4895 53.896 43.4587 53.91 43.4307L55.61 37.0721C55.6218 37.0408 55.6255 37.0071 55.6209 36.974C55.6163 36.9409 55.6034 36.9095 55.5835 36.8827C55.5637 36.8558 55.5373 36.8344 55.507 36.8203C55.4767 36.8063 55.4434 36.8 55.41 36.8022H53.03C52.9828 36.804 52.9374 36.8204 52.8998 36.849C52.8622 36.8776 52.8344 36.9171 52.82 36.9621L50.62 45.2204C50.606 45.2483 50.5986 45.2791 50.5986 45.3103C50.5986 45.3416 50.606 45.3724 50.62 45.4003C50.6402 45.4259 50.6661 45.4465 50.6956 45.4604C50.7251 45.4743 50.7574 45.4811 50.79 45.4803H58.22C58.2654 45.4817 58.31 45.4677 58.3464 45.4404C58.3827 45.4132 58.4087 45.3743 58.42 45.3303L58.8 43.9806C58.8149 43.953 58.8227 43.9221 58.8227 43.8906C58.8227 43.8592 58.8149 43.8283 58.8 43.8007C58.7819 43.7641 58.753 43.734 58.7173 43.7144C58.6815 43.6947 58.6406 43.6864 58.6 43.6907Z" fill="#FEFEFE"/>
<path d="M69.01 37.1222C69.0276 37.0882 69.0367 37.0505 69.0367 37.0122C69.0367 36.9739 69.0276 36.9362 69.01 36.9022C68.9862 36.8717 68.9559 36.8469 68.9213 36.8296C68.8867 36.8123 68.8487 36.803 68.81 36.8022H61.9C61.8178 36.8037 61.7383 36.8317 61.6733 36.8822C61.6084 36.9327 61.5616 37.0029 61.54 37.0822L59.37 45.2204C59.3532 45.2474 59.3442 45.2786 59.3442 45.3104C59.3442 45.3422 59.3532 45.3734 59.37 45.4004C59.3892 45.4247 59.4134 45.4445 59.4411 45.4583C59.4687 45.4721 59.4991 45.4797 59.53 45.4804H67.22C67.2741 45.4804 67.3267 45.4628 67.37 45.4304C67.4133 45.398 67.4449 45.3523 67.46 45.3004L67.81 44.0407C67.8268 44.0065 67.8355 43.9688 67.8355 43.9307C67.8355 43.8926 67.8268 43.855 67.81 43.8207C67.7879 43.7884 67.758 43.7623 67.723 43.7448C67.688 43.7273 67.6491 43.719 67.61 43.7208H62.84C62.8013 43.72 62.7633 43.7107 62.7287 43.6934C62.6941 43.6761 62.6638 43.6513 62.64 43.6208C62.615 43.5906 62.5975 43.555 62.5888 43.5168C62.5801 43.4786 62.5805 43.4388 62.59 43.4008L62.92 42.1811C62.9345 42.1155 62.9738 42.058 63.0297 42.0207C63.0857 41.9834 63.1539 41.9692 63.22 41.9811H66.98C67.035 41.9789 67.0878 41.9593 67.1309 41.9252C67.1741 41.8911 67.2053 41.8442 67.22 41.7912L67.56 40.5414C67.5695 40.5034 67.5699 40.4637 67.5612 40.4255C67.5526 40.3873 67.535 40.3517 67.51 40.3215C67.4879 40.2892 67.458 40.2631 67.423 40.2456C67.388 40.2281 67.3491 40.2198 67.31 40.2215H63.77C63.7313 40.2208 63.6933 40.2114 63.6587 40.1941C63.6241 40.1768 63.5938 40.152 63.57 40.1215C63.545 40.0914 63.5275 40.0557 63.5188 40.0175C63.5101 39.9793 63.5105 39.9396 63.52 39.9016L63.82 38.7718C63.8348 38.7189 63.866 38.6719 63.9091 38.6378C63.9522 38.6037 64.0051 38.5841 64.06 38.5819H67.97C68.0011 38.583 68.0318 38.5752 68.0584 38.5592C68.085 38.5432 68.1065 38.5198 68.12 38.4919C68.3524 38.0551 68.6379 37.6488 68.97 37.2821L69.01 37.1222Z" fill="#FEFEFE"/>
<path d="M89.2701 36.8019H86.8901L85.6201 41.4409C85.6177 41.4577 85.6093 41.473 85.5964 41.4841C85.5835 41.4951 85.5671 41.5011 85.5501 41.5009C85.5391 41.5107 85.5249 41.5162 85.5101 41.5162C85.4954 41.5162 85.4811 41.5107 85.4701 41.5009L83.1101 36.9819C83.0807 36.9308 83.0384 36.8883 82.9876 36.8586C82.9368 36.8288 82.879 36.8127 82.8201 36.8119H80.9901C80.9196 36.8135 80.8514 36.8377 80.7956 36.8809C80.7398 36.9241 80.6993 36.984 80.6801 37.0519L79.7301 40.5611C79.7102 40.6399 79.7102 40.7223 79.7301 40.8011C79.7453 41.0408 79.7453 41.2812 79.7301 41.5209C79.7292 42.881 79.2714 44.2013 78.4301 45.2701C78.4202 45.2921 78.415 45.3159 78.415 45.3401C78.415 45.3642 78.4202 45.3881 78.4301 45.4101C78.4435 45.4293 78.4615 45.4449 78.4825 45.4554C78.5034 45.4658 78.5267 45.4709 78.5501 45.4701H80.9301C80.9722 45.4684 81.0128 45.4542 81.0467 45.4293C81.0805 45.4043 81.1061 45.3698 81.1201 45.3301L82.2401 41.021C82.2422 41.0032 82.2503 40.9866 82.263 40.9739C82.2757 40.9612 82.2923 40.9531 82.3101 40.951C82.3268 40.9511 82.3431 40.9559 82.3572 40.9647C82.3713 40.9735 82.3827 40.9861 82.3901 41.001L84.8501 45.3101C84.8792 45.3585 84.9202 45.3986 84.9692 45.4266C85.0183 45.4546 85.0737 45.4696 85.1301 45.4701H86.9201C86.9924 45.4706 87.0628 45.4474 87.1206 45.4041C87.1784 45.3607 87.2204 45.2996 87.2401 45.2301L89.4201 37.0419C89.432 37.0151 89.4381 36.9861 89.4381 36.9569C89.4381 36.9276 89.432 36.8987 89.4201 36.8719C89.4025 36.8491 89.3797 36.8308 89.3536 36.8186C89.3275 36.8065 89.2989 36.8007 89.2701 36.8019Z" fill="#FEFEFE"/>
<path d="M78.7499 40.8414C78.6734 40.2745 78.5045 39.724 78.2499 39.2118L75.8199 38.7818L74.5899 36.4923C74.2958 36.4438 73.998 36.4204 73.6999 36.4224C73.4623 36.4188 73.2247 36.4355 72.9899 36.4723L71.7399 38.7619L69.1299 39.2717C68.8949 39.7322 68.7394 40.2291 68.6699 40.7414L70.4499 42.621L70.1499 45.1605C70.5357 45.541 70.9817 45.8551 71.4699 46.0903L73.7399 44.9805L75.9899 46.0403C76.5102 45.7892 76.9836 45.4511 77.3899 45.0405L77.0899 42.641L78.7499 40.8414ZM74.8299 43.1409L73.6799 43.9807L72.5299 43.1509L71.3799 42.3111L71.8199 40.9814L72.2199 39.6017H75.0699L75.5399 40.9814L75.9799 42.3311L74.8299 43.1409Z" fill="#FEFEFE"/>
<path d="M73.8802 28.0142H64.5402C63.6621 28.0142 62.9502 28.726 62.9502 29.6042C62.9502 30.4823 63.6621 31.1942 64.5402 31.1942H73.8802C74.7583 31.1942 75.4702 30.4823 75.4702 29.6042C75.4702 28.726 74.7583 28.0142 73.8802 28.0142Z" fill="#FF4232"/>
<path d="M42.0301 28.9139C41.4115 28.7909 40.7697 28.87 40.1996 29.1397C39.6294 29.4093 39.1611 29.8551 38.8637 30.4112C38.5664 30.9673 38.4559 31.6043 38.5484 32.2281C38.641 32.8519 38.9317 33.4293 39.3777 33.8752C39.8237 34.3211 40.4013 34.6118 41.0252 34.7043C41.6491 34.7969 42.2862 34.6864 42.8425 34.3891C43.3987 34.0918 43.8446 33.6236 44.1143 33.0536C44.384 32.4835 44.4632 31.8419 44.3401 31.2234C44.2267 30.6532 43.9467 30.1294 43.5355 29.7183C43.1243 29.3073 42.6004 29.0273 42.0301 28.9139Z" fill="#FF4232"/>
<path d="M93.0802 80.7627H47.1602C41.7864 80.7627 37.4302 85.1158 37.4302 90.4856C37.4302 95.8554 41.7864 100.209 47.1602 100.209H93.0802C98.4539 100.209 102.81 95.8554 102.81 90.4856C102.81 85.1158 98.4539 80.7627 93.0802 80.7627Z" fill="#FF4232"/>
<path d="M49.8299 94.0898C48.0699 94.0898 46.4499 93.3 46.7399 91.2704L46.9399 89.8008C47.2299 87.8012 49.0699 86.9914 50.8299 86.9914L50.9299 86.2915H52.9299L52.8299 86.9914C54.5899 86.9914 56.2099 87.7812 55.9199 89.8008L55.7199 91.2704C55.4299 93.27 53.5999 94.0898 51.8299 94.0898L51.7299 94.7797H49.7299L49.8299 94.0898ZM48.8999 91.2804C48.7899 92.0003 49.3999 92.1402 50.0999 92.1402L50.5499 88.9709C49.8599 88.9709 49.1999 89.1109 49.0999 89.8307L48.8999 91.2804ZM53.7999 89.7908C53.8999 89.0709 53.2899 88.9309 52.5899 88.9309L52.1399 92.1402C52.8299 92.1402 53.4899 92.0003 53.5999 91.2804L53.7999 89.7908Z" fill="white"/>
<path d="M57.4402 86.2917H60.8402C61.2339 86.2613 61.6292 86.3231 61.9948 86.4722C62.3604 86.6213 62.6862 86.8535 62.9464 87.1505C63.2065 87.4475 63.3938 87.801 63.4934 88.183C63.5931 88.565 63.6022 88.9649 63.5202 89.351C63.4611 90.1991 63.0699 90.9896 62.4315 91.5511C61.7931 92.1126 60.9591 92.3998 60.1102 92.3504H58.7502L58.4002 94.8299H56.2202L57.4402 86.2917ZM60.2202 90.3908C60.5133 90.386 60.7934 90.2695 61.0035 90.0651C61.2135 89.8607 61.3375 89.5838 61.3502 89.2911C61.3823 89.1682 61.3846 89.0395 61.3571 88.9156C61.3295 88.7916 61.2728 88.676 61.1917 88.5783C61.1106 88.4806 61.0074 88.4036 60.8906 88.3537C60.7739 88.3038 60.6469 88.2824 60.5202 88.2913H59.3102L59.0102 90.3908H60.2202Z" fill="white"/>
<path d="M68.8802 91.3904L69.3202 89.7908H69.2202L68.2202 91.4504L65.7002 94.7897H63.7002L64.9002 86.3015H67.0602L66.5202 90.1507L66.1602 91.4204L67.0802 89.9007L69.7602 86.2915H71.7602L70.5602 94.7797H68.4002L68.8802 91.3904Z" fill="white"/>
<path d="M75.3799 94.7797H71.9199L73.1199 86.2915H78.9199L78.6699 88.0911H75.0199L74.8299 89.4108H76.0799C78.4399 89.4108 79.0799 90.3206 78.8099 92.0103C78.7023 92.8235 78.2864 93.5644 77.6481 94.0798C77.0097 94.5952 76.1978 94.8457 75.3799 94.7797ZM75.5999 92.9001C75.7394 92.9141 75.8803 92.8986 76.0134 92.8547C76.1465 92.8108 76.2689 92.7394 76.3726 92.6451C76.4763 92.5508 76.5591 92.4358 76.6155 92.3075C76.6719 92.1792 76.7006 92.0404 76.6999 91.9003C76.7899 91.3004 76.5099 90.9705 75.8499 90.9705H74.6099L74.3499 92.9001H75.5999Z" fill="white"/>
<path d="M82.2201 89.5808H85.6601L85.4001 91.4804H81.9301L81.7501 92.7601H85.5001L85.2201 94.7597H79.3101L80.4901 86.2715H86.4101L86.1201 88.2711H82.3801L82.2201 89.5808Z" fill="white"/>
<path d="M91.22 88.251L90.32 94.7796H88.14L89.04 88.251H86.75L87.04 86.2515H93.79L93.5 88.251H91.22Z" fill="white"/>
<path d="M63.5402 72.4143C63.5402 72.4143 61.7402 73.2741 62.5402 76.6634C62.8202 77.9031 64.1602 80.0227 67.5402 80.3626L68.8602 81.5723C67.3474 81.8926 65.7807 81.8541 64.2855 81.46C62.7904 81.0659 61.4083 80.3271 60.2502 79.3028C58.1802 77.8431 56.9802 73.3041 60.9002 71.7944C61.805 71.8757 62.6938 72.0843 63.5402 72.4143Z" fill="#FF4232"/>
<path d="M60.77 71.8647C61.611 71.8007 62.4506 72.0041 63.169 72.4458C63.8874 72.8876 64.4478 73.545 64.77 74.3242C65.91 76.8936 67.57 80.7128 67.57 80.7128L70.78 81.0228L68.22 74.0842C68.22 74.0842 66.81 69.7652 60.77 71.8647Z" fill="#FF4232"/>
<path d="M76.7001 72.4143C76.7001 72.4143 78.5101 73.2741 77.7001 76.6634C77.4201 77.9031 76.0801 80.0227 72.7001 80.3626L71.3701 81.5723C72.8844 81.8926 74.4527 81.8542 75.9494 81.4601C77.4462 81.066 78.83 80.3272 79.9901 79.3028C82.0501 77.8431 83.2601 73.3041 79.3301 71.7944C78.4287 71.8766 77.5433 72.0853 76.7001 72.4143Z" fill="#FF4232"/>
<path d="M79.4702 71.8647C78.6293 71.8007 77.7896 72.0041 77.0712 72.4458C76.3528 72.8876 75.7925 73.545 75.4702 74.3242L72.6702 80.7128L69.4702 81.0228L72.0302 74.0842C72.0302 74.0842 73.4302 69.7652 79.4702 71.8647Z" fill="#FF4232"/>
<defs>
<linearGradient id="paint0_linear_1377_1470" x1="-6.5" y1="-40.4913" x2="64.9729" y2="156.476" gradientUnits="userSpaceOnUse">
<stop stop-color="#22262A"/>
<stop offset="1" stop-color="#0B0D0E"/>
</linearGradient>
</defs>
</svg>
