<svg width="140" height="140" viewBox="0 0 140 140" fill="none" xmlns="http://www.w3.org/2000/svg">
<g clip-path="url(#clip0_1377_1469)">
<path d="M70 139.97C108.66 139.97 140 108.637 140 69.985C140 31.3334 108.66 0 70 0C31.3401 0 0 31.3334 0 69.985C0 108.637 31.3401 139.97 70 139.97Z" fill="url(#paint0_linear_1377_1469)"/>
<path d="M101.54 30.3735H38.54C36.1617 30.3735 33.8801 31.3146 32.1937 32.9913C30.5073 34.668 29.5533 36.9439 29.54 39.3216V127.113C30.96 128.113 32.42 129.112 33.92 130.002C44.8137 136.544 57.2822 140 69.99 140C82.6979 140 95.1664 136.544 106.06 130.002C107.56 129.092 109.06 128.123 110.45 127.113V39.3216C110.437 36.9594 109.495 34.697 107.828 33.0228C106.161 31.3487 103.903 30.3971 101.54 30.3735Z" fill="#FF4232"/>
<path d="M35.1099 35.6626V130.642C36.3399 131.372 37.5999 132.032 38.8899 132.692C48.5757 137.467 59.2304 139.951 70.0299 139.951C80.8293 139.951 91.484 137.467 101.17 132.692C102.47 132.032 103.72 131.372 104.96 130.642V35.6626H35.1099Z" fill="white"/>
<path d="M83.5802 26.5642L82.5802 22.0052C82.467 21.4414 82.1622 20.9342 81.7174 20.5697C81.2726 20.2052 80.7153 20.0059 80.1402 20.0056H60.4802C59.8954 19.9975 59.3264 20.1954 58.873 20.5646C58.4195 20.9339 58.1106 21.451 58.0002 22.0252L57.0002 26.5842C56.9262 26.9466 56.9336 27.3208 57.0218 27.68C57.11 28.0392 57.2768 28.3743 57.5102 28.6612C57.7436 28.9482 58.0378 29.1797 58.3716 29.3392C58.7053 29.4987 59.0703 29.5822 59.4402 29.5836H81.1402C81.5122 29.5828 81.8793 29.499 82.2148 29.3383C82.5503 29.1777 82.8457 28.9442 83.0795 28.6549C83.3133 28.3656 83.4796 28.0278 83.5662 27.6661C83.6528 27.3044 83.6576 26.928 83.5802 26.5642Z" fill="#FF4232"/>
<path d="M98.2 36.8423L96 26.7745C95.8869 26.2107 95.582 25.7035 95.1372 25.339C94.6924 24.9745 94.1352 24.7752 93.56 24.7749H47.45C46.8737 24.7748 46.3151 24.9738 45.8686 25.3381C45.4221 25.7025 45.1153 26.2099 45 26.7745L42.82 36.8423C42.7461 37.2047 42.7534 37.5789 42.8416 37.9381C42.9298 38.2973 43.0966 38.6324 43.33 38.9193C43.5635 39.2063 43.8576 39.4378 44.1914 39.5973C44.5251 39.7568 44.8901 39.8403 45.26 39.8417H95.76C96.13 39.8403 96.495 39.7568 96.8287 39.5973C97.1625 39.4378 97.4566 39.2063 97.6901 38.9193C97.9235 38.6324 98.0903 38.2973 98.1785 37.9381C98.2667 37.5789 98.274 37.2047 98.2 36.8423Z" fill="#FF4232"/>
<path d="M71.11 116.015C80.7087 116.015 88.49 108.236 88.49 98.639C88.49 89.0423 80.7087 81.2627 71.11 81.2627C61.5113 81.2627 53.73 89.0423 53.73 98.639C53.73 108.236 61.5113 116.015 71.11 116.015Z" stroke="#FF4232" stroke-width="4" stroke-miterlimit="10"/>
<path d="M71.0998 107.717C70.7362 107.72 70.3763 107.643 70.0461 107.491C69.7158 107.339 69.4234 107.116 69.1898 106.837L61.1998 98.0088C60.8742 97.6593 60.6578 97.2222 60.5774 96.7513C60.497 96.2804 60.5561 95.7963 60.7474 95.3585C60.9387 94.9208 61.2538 94.5485 61.654 94.2875C62.0542 94.0266 62.522 93.8883 62.9998 93.8897C63.2715 93.893 63.5411 93.9368 63.7998 94.0197H63.9098L69.2898 96.7791C71.4998 94.4896 80.9698 85.7814 88.7598 81.7823C89.0714 81.6224 89.4134 81.5308 89.7632 81.5137C90.1129 81.4966 90.4623 81.5543 90.788 81.683C91.1136 81.8117 91.408 82.0085 91.6515 82.2601C91.895 82.5117 92.0819 82.8124 92.1998 83.142C92.3757 83.6117 92.4018 84.1242 92.2747 84.6093C92.1476 85.0944 91.8734 85.5283 91.4898 85.8514C84.6454 92.0032 78.5379 98.928 73.2898 106.487C73.0537 106.856 72.7304 107.161 72.3485 107.375C71.9666 107.59 71.5378 107.707 71.0998 107.717Z" fill="#FF4232"/>
<path d="M89.9201 83.062C90.1111 83.0775 90.2936 83.1476 90.4459 83.2638C90.5983 83.3801 90.714 83.5376 90.7793 83.7178C90.8446 83.8979 90.8568 84.093 90.8144 84.2798C90.772 84.4667 90.6768 84.6374 90.5401 84.7717C83.583 91.0014 77.3837 98.0282 72.0701 105.707C71.9595 105.869 71.81 106.001 71.6352 106.09C71.4605 106.179 71.2662 106.223 71.0701 106.217C70.9264 106.218 70.7842 106.189 70.653 106.13C70.5219 106.071 70.4049 105.985 70.3101 105.877L62.3101 96.9591C62.2103 96.8182 62.1487 96.6539 62.1312 96.4821C62.1138 96.3103 62.1412 96.137 62.2106 95.9789C62.2801 95.8209 62.3894 95.6835 62.5277 95.5802C62.666 95.4769 62.8288 95.4112 63.0001 95.3894C63.1085 95.3921 63.216 95.4089 63.3201 95.4394L69.1001 98.4387C69.1995 98.4538 69.3007 98.4538 69.4001 98.4387C69.5355 98.4369 69.6692 98.4077 69.7929 98.3527C69.9167 98.2977 70.028 98.2181 70.1201 98.1188C71.6301 96.4092 81.5701 87.1212 89.4401 83.122C89.5794 83.0507 89.7335 83.013 89.8901 83.0121L89.9201 83.062ZM89.8901 80.0127C89.2639 80.0164 88.6474 80.1671 88.0901 80.4526C80.9001 84.1618 72.2701 91.8302 69.0001 95.0095L64.6801 92.8L64.4801 92.69L64.2701 92.62C63.862 92.4751 63.4331 92.3975 63.0001 92.39C62.2587 92.4139 61.5385 92.6435 60.9201 93.053C60.3017 93.4625 59.8093 94.0359 59.4981 94.7091C59.1868 95.3823 59.0689 96.1288 59.1576 96.8651C59.2462 97.6014 59.5379 98.2985 60.0001 98.8787L68.0001 107.777C68.3749 108.203 68.8363 108.545 69.3536 108.78C69.8709 109.014 70.4321 109.136 71.0001 109.136C71.6874 109.139 72.3645 108.97 72.9703 108.645C73.5761 108.321 74.0916 107.85 74.4701 107.277C79.6787 99.8464 85.7325 93.0456 92.5101 87.0112C93.1233 86.4885 93.56 85.7892 93.7605 85.009C93.9609 84.2287 93.9154 83.4055 93.6301 82.6521C93.3487 81.8928 92.8433 81.2367 92.1808 80.7708C91.5184 80.3048 90.73 80.0509 89.9201 80.0427L89.8901 80.0127Z" fill="white"/>
<path d="M97.2101 32.313H67.2901H66.9601H43.8001L43.0801 35.633H66.9601H67.2901H97.9301L97.2101 32.313Z" fill="#CD3829"/>
<path d="M75.5701 56.1381C75.5701 56.1381 74.2001 55.8981 73.3601 55.7881C73.1348 55.7725 72.916 55.7059 72.7202 55.5933C72.5245 55.4807 72.3569 55.3251 72.2301 55.1383C72.2301 55.1383 71.0001 52.8588 70.7601 52.4788C70.6821 52.3617 70.5743 52.2675 70.4477 52.2059C70.3211 52.1444 70.1804 52.1178 70.0401 52.1289C69.8984 52.1181 69.7564 52.1447 69.6282 52.2062C69.5001 52.2676 69.3904 52.3616 69.3101 52.4788C69.0701 52.8588 67.8501 55.1383 67.8501 55.1383C67.7207 55.3249 67.5511 55.4801 67.3539 55.5925C67.1566 55.705 66.9366 55.7718 66.7101 55.7881C65.8701 55.8981 64.5101 56.1381 64.5101 56.1381C64.306 56.1885 64.1213 56.2978 63.9791 56.4525C63.8368 56.6072 63.7433 56.8004 63.7101 57.0079C63.7074 57.2096 63.7449 57.4099 63.8205 57.597C63.896 57.7841 64.0081 57.9543 64.1501 58.0976L65.8301 59.9472C65.9766 60.128 66.0762 60.3422 66.1198 60.5707C66.1634 60.7992 66.1498 61.035 66.0801 61.257C65.8901 62.2068 65.7401 63.5565 65.7401 63.5565C65.687 63.7301 65.6823 63.9149 65.7263 64.091C65.7704 64.2672 65.8616 64.428 65.9901 64.5563C66.2115 64.7012 66.4704 64.7784 66.7351 64.7784C66.9998 64.7784 67.2587 64.7012 67.4801 64.5563L69.4801 63.5565C69.6534 63.4608 69.8435 63.3997 70.0401 63.3765C70.2598 63.3951 70.4738 63.4562 70.6701 63.5565C70.6701 63.5565 72.0401 64.2563 72.6101 64.5563C72.8295 64.7016 73.0869 64.7791 73.3501 64.7791C73.6133 64.7791 73.8707 64.7016 74.0901 64.5563C74.2204 64.4291 74.3134 64.2687 74.3593 64.0925C74.4051 63.9163 74.4019 63.731 74.3501 63.5565C74.3501 63.5565 74.2001 62.2068 74.0001 61.257C73.9309 61.0343 73.9184 60.7978 73.9638 60.5691C74.0092 60.3404 74.1111 60.1266 74.2601 59.9472L75.9401 58.0976C76.2209 57.8089 76.3755 57.4205 76.3701 57.0179C76.3388 56.8085 76.246 56.6132 76.1036 56.4566C75.9612 56.3 75.7755 56.1891 75.5701 56.1381Z" fill="#2A2F34"/>
<path d="M56.9998 56.138C56.9998 56.138 55.6398 55.898 54.7998 55.788C54.5733 55.7717 54.3533 55.7049 54.156 55.5924C53.9587 55.48 53.7892 55.3248 53.6598 55.1382C53.6598 55.1382 52.4398 52.8587 52.1998 52.4787C52.1195 52.3615 52.0098 52.2675 51.8816 52.2061C51.7535 52.1446 51.6115 52.118 51.4698 52.1288C51.3282 52.119 51.1865 52.1461 51.0586 52.2074C50.9306 52.2688 50.8208 52.3622 50.7398 52.4787C50.4998 52.8587 49.2798 55.1382 49.2798 55.1382C49.153 55.325 48.9854 55.4806 48.7896 55.5932C48.5939 55.7058 48.3751 55.7724 48.1498 55.788C47.3098 55.898 45.9398 56.138 45.9398 56.138C45.7357 56.1884 45.551 56.2977 45.4088 56.4524C45.2665 56.6071 45.1729 56.8003 45.1398 57.0078C45.1371 57.2095 45.1746 57.4098 45.2502 57.5969C45.3257 57.784 45.4378 57.9542 45.5798 58.0975L47.2598 59.9471C47.4088 60.1265 47.5098 60.3408 47.5535 60.5698C47.5973 60.7988 47.5822 61.0352 47.5098 61.2569C47.3198 62.2067 47.1698 63.5564 47.1698 63.5564C47.118 63.7309 47.1148 63.9162 47.1606 64.0924C47.2064 64.2686 47.2995 64.429 47.4298 64.5562C47.6492 64.7015 47.9066 64.779 48.1698 64.779C48.433 64.779 48.6904 64.7015 48.9098 64.5562L50.9098 63.5564C51.0861 63.4595 51.2798 63.3983 51.4798 63.3764C51.6995 63.395 51.9134 63.4561 52.1098 63.5564C52.1098 63.5564 53.4698 64.2562 54.0398 64.5562C54.2612 64.7011 54.5201 64.7783 54.7848 64.7783C55.0494 64.7783 55.3084 64.7011 55.5298 64.5562C55.6583 64.4279 55.7495 64.2671 55.7936 64.0909C55.8376 63.9148 55.8328 63.73 55.7798 63.5564C55.7798 63.5564 55.6298 62.2067 55.4398 61.2569C55.3701 61.0349 55.3565 60.7991 55.4001 60.5706C55.4437 60.3421 55.5432 60.1279 55.6898 59.9471L57.3698 58.0975C57.6506 57.8088 57.8052 57.4204 57.7998 57.0178C57.7684 56.8084 57.6757 56.6131 57.5333 56.4565C57.3909 56.2999 57.2052 56.189 56.9998 56.138Z" fill="#FF4232"/>
<path d="M94.1398 56.1379C94.1398 56.1379 92.7698 55.898 91.9298 55.788C91.7045 55.7724 91.4857 55.7057 91.2899 55.5932C91.0942 55.4806 90.9265 55.325 90.7998 55.1381C90.7998 55.1381 89.5698 52.8586 89.3298 52.4787C89.2502 52.3607 89.1406 52.2661 89.0123 52.2046C88.884 52.1431 88.7416 52.1169 88.5998 52.1288C88.458 52.1169 88.3156 52.1431 88.1872 52.2046C88.0589 52.2661 87.9493 52.3607 87.8698 52.4787C87.6298 52.8586 86.4098 55.1381 86.4098 55.1381C86.2804 55.3247 86.1108 55.4799 85.9135 55.5924C85.7162 55.7048 85.4963 55.7717 85.2698 55.788C84.4298 55.898 83.0598 56.1379 83.0598 56.1379C82.8563 56.1895 82.6723 56.2992 82.5302 56.4537C82.3881 56.6082 82.2941 56.8007 82.2598 57.0077C82.2587 57.4144 82.4166 57.8055 82.6998 58.0975L84.3798 59.9471C84.5288 60.1265 84.6306 60.3402 84.676 60.5689C84.7215 60.7977 84.709 61.0341 84.6398 61.2568C84.4498 62.2066 84.2898 63.5563 84.2898 63.5563C84.238 63.7308 84.2348 63.9162 84.2806 64.0924C84.3264 64.2686 84.4195 64.4289 84.5498 64.5561C84.7712 64.701 85.0301 64.7783 85.2948 64.7783C85.5594 64.7783 85.8183 64.701 86.0398 64.5561L88.0398 63.5563C88.2122 63.4587 88.4028 63.3975 88.5998 63.3763C88.8195 63.3949 89.0334 63.456 89.2298 63.5563C89.2298 63.5563 90.5998 64.2562 91.1598 64.5561C91.3812 64.701 91.6401 64.7783 91.9048 64.7783C92.1694 64.7783 92.4283 64.701 92.6498 64.5561C92.78 64.4289 92.8731 64.2686 92.9189 64.0924C92.9647 63.9162 92.9616 63.7308 92.9098 63.5563C92.9098 63.5563 92.7498 62.2066 92.5598 61.2568C92.4906 61.0341 92.4781 60.7977 92.5235 60.5689C92.5689 60.3402 92.6707 60.1265 92.8198 59.9471L94.4998 58.0975C94.7805 57.808 94.9382 57.421 94.9398 57.0177C94.9072 56.8089 94.814 56.6142 94.6718 56.4578C94.5296 56.3014 94.3446 56.1902 94.1398 56.1379Z" fill="#2A2F34"/>
</g>
<defs>
<linearGradient id="paint0_linear_1377_1469" x1="-6.5" y1="-40.4913" x2="64.9729" y2="156.476" gradientUnits="userSpaceOnUse">
<stop stop-color="#22262A"/>
<stop offset="1" stop-color="#0B0D0E"/>
</linearGradient>
<clipPath id="clip0_1377_1469">
<rect width="140" height="140" fill="white"/>
</clipPath>
</defs>
</svg>
