<svg width="140" height="140" viewBox="0 0 140 140" fill="none" xmlns="http://www.w3.org/2000/svg">
<g clip-path="url(#clip0_1377_1468)">
<path d="M70 140C108.66 140 140 108.66 140 70C140 31.3401 108.66 0 70 0C31.3401 0 0 31.3401 0 70C0 108.66 31.3401 140 70 140Z" fill="url(#paint0_linear_1377_1468)"/>
<path d="M69.9198 71.24L65.9998 70.46L53.7598 68V138.1C59.0543 139.359 64.4776 139.997 69.9198 140V71.24Z" fill="#CD3829"/>
<path d="M42.87 65.8502L29.48 63.1802V127.1C33.6553 130.075 38.1457 132.58 42.87 134.57V65.8502Z" fill="#CD3829"/>
<path d="M97.5298 65.7499V134.36C102.051 132.41 106.355 129.99 110.37 127.14V63.1899L97.5298 65.7499Z" fill="#E74C3C"/>
<path d="M69.9199 71.2399V140C75.54 140.005 81.1404 139.334 86.5999 138V67.9199L69.9199 71.2399Z" fill="#E74C3C"/>
<path d="M110.138 60.812L110.128 60.814L110.599 63.1674L110.609 63.1654L110.138 60.812Z" fill="#CD3829"/>
<path d="M69.9199 68.8299L72.0799 68.3999L69.9199 68.8299Z" fill="#CD3829"/>
<path d="M97.52 63.34V65.75L110.37 63.19V60.79L97.52 63.34Z" fill="#CD3829"/>
<path d="M69.9199 68.8298V71.2298L86.6299 67.9098V65.5098L72.0799 68.3998L69.9199 68.8298Z" fill="#CD3829"/>
<path d="M29.4802 60.79H29.4702V63.18H29.4802V60.79Z" fill="#952014"/>
<path d="M53.7598 65.6201V68.0201L65.9698 70.4501V68.0501L53.7598 65.6201Z" fill="#952014"/>
<path d="M42.87 63.45L29.48 60.79V63.18L42.87 65.85V63.45Z" fill="#952014"/>
<path d="M65.9702 68.0498V70.4498L69.9102 71.2398H69.9202V68.8298L65.9702 68.0498Z" fill="#952014"/>
<path d="M42.87 53.9799V51.5899H42.85H42.87L25.52 48.1299V59.9999L29.47 60.7899V51.3099L42.87 53.9799Z" fill="#CD3829"/>
<path d="M69.9198 59.3701V56.9701L53.7898 53.7601H53.7798L44.2598 51.8701L53.7598 53.7601V56.1501L69.9098 59.3701H69.9198Z" fill="#CD3829"/>
<path d="M69.9202 68.8301V59.3701H69.9102H69.9202V68.8301Z" fill="#CD3829"/>
<path d="M29.4802 60.7701L42.8702 63.4401V53.9801L29.4702 51.3101V60.7901H29.4802V60.7701Z" fill="#CD3829"/>
<path d="M65.9698 60.1599L69.9098 59.3699L53.7598 56.1499V65.6099L65.9698 68.0499V60.1599Z" fill="#CD3829"/>
<path d="M29.48 60.77V60.79L42.87 63.45V63.44L29.48 60.77Z" fill="#CD3829"/>
<path d="M69.9202 59.3701H69.9102L65.9702 60.1601V68.0501L69.9202 68.8301V59.3701Z" fill="#CD3829"/>
<path d="M86.6199 53.6401L69.9199 56.9701V59.3701L86.6299 56.0501V53.6401H86.6699L86.6299 53.6501L86.6199 53.6401Z" fill="#E74C3C"/>
<path d="M97.55 51.4699L97.52 51.4799V53.8799L110.38 51.3199V60.7899L114.32 59.9999V48.1299L97.54 51.4699H97.55Z" fill="#E74C3C"/>
<path d="M69.9199 68.8298L72.0799 68.3998L86.6299 65.4998V56.0498L69.9199 59.3698V68.8298Z" fill="#E74C3C"/>
<path d="M97.52 53.8798V63.3298L110.37 60.7698V60.7898H110.38V51.3198L97.52 53.8798Z" fill="#E74C3C"/>
<path d="M110.37 60.79V60.77L97.52 63.33V63.34L110.37 60.79Z" fill="#E74C3C"/>
<path d="M72.0801 68.4L86.6301 65.51V65.5L72.0801 68.4Z" fill="#E74C3C"/>
<path d="M86.62 53.6402L70.51 50.4302L53.79 53.7602L69.92 56.9702L86.62 53.6402Z" fill="#FF6454"/>
<path d="M59.58 48.2398L42.23 44.7798L25.52 48.1298L42.87 51.5898L59.58 48.2398Z" fill="#FF6454"/>
<path d="M82.9999 41.8699L76.9999 40.6699L74.6099 44.9099C77.6529 44.7852 80.5832 43.7235 82.9999 41.8699Z" fill="#FF6454"/>
<path d="M64.6698 40.29L58.5698 41.51C60.2098 43.06 62.9398 44.51 67.1698 44.89L64.6698 40.29Z" fill="#FF6454"/>
<path d="M81.3198 48.27L97.5398 51.47L114.32 48.13L96.2298 44.52L98.0998 44.93L81.3198 48.27Z" fill="#FF6454"/>
<path d="M97.54 51.4699L114.32 48.1299L97.54 51.4699Z" fill="#FF6454"/>
<path d="M96.23 44.5199L90.17 43.1699L90 43.2699L96.23 44.5199Z" fill="white"/>
<path d="M44.2601 51.8698L53.7801 53.7598H53.7901L42.8701 51.5898H42.8501H42.8701L44.2601 51.8698Z" fill="white"/>
<path d="M70.5101 50.4302L59.5801 48.2402L42.8701 51.5902L53.7901 53.7602L70.5101 50.4302Z" fill="white"/>
<path d="M77 47.43L81.3 48.28L98.1 44.94L96.23 44.52L90 43.27C86.1145 45.7897 81.6265 47.2258 77 47.43Z" fill="white"/>
<path d="M51.3702 42.9399L42.2202 44.7799L51.4002 42.9999L51.3702 42.9399Z" fill="white"/>
<path d="M86.6301 53.6501L86.6701 53.6401L89.4901 53.0801L86.6201 53.6401L86.6301 53.6501Z" fill="white"/>
<path d="M86.6198 53.64L89.7298 53.03L97.5198 51.47V51.48L97.5398 51.47L81.3198 48.27L70.5098 50.43L86.6198 53.64Z" fill="white"/>
<path d="M64.0002 47.37C59.5706 47.019 55.3049 45.5385 51.6102 43.07L51.4002 43L42.2402 44.84L59.5802 48.3L64.0002 47.37Z" fill="white"/>
<path d="M89.4901 53.0798L89.7301 53.0298L86.6201 53.6398L89.4901 53.0798Z" fill="white"/>
<path d="M81.32 48.2801L77 47.4301C75.7295 47.4933 74.4561 47.4632 73.19 47.3401L72.91 47.8301L70.43 47.0601C68.2904 47.4551 66.1064 47.5526 63.94 47.3501L59.54 48.2301L70.47 50.4101L81.32 48.2801Z" fill="white"/>
<path d="M42.8701 65.8501V134.57C46.3981 136.041 50.0402 137.221 53.7601 138.1V68.0001L42.8701 65.8501Z" fill="#A3ACB6"/>
<path d="M53.7601 65.6202L42.8701 63.4502V65.8502L53.7601 68.0202V65.6202Z" fill="#A3ACB6"/>
<path d="M53.7601 53.7598L44.2601 51.8698L42.8701 51.5898V53.9798L53.7601 56.1498V53.7598Z" fill="#A3ACB6"/>
<path d="M53.7601 56.15L42.8701 53.98V63.44L53.7601 65.61V56.15Z" fill="#A3ACB6"/>
<path d="M53.7601 65.6099L42.8701 63.4399V63.4499L53.7601 65.6199V65.6099Z" fill="#A3ACB6"/>
<path d="M42.8701 51.5898L44.2601 51.8698L42.8701 51.5898Z" fill="#A3ACB6"/>
<path d="M86.6299 138C90.3556 137.088 94.001 135.874 97.5299 134.37V65.75L86.6299 67.92V138Z" fill="white"/>
<path d="M86.6299 65.5098V67.9098L97.5199 65.7498V63.3398L86.6299 65.5098Z" fill="white"/>
<path d="M86.6299 53.64V56.05L97.5199 53.88V51.48L86.6699 53.64H86.6299Z" fill="white"/>
<path d="M86.6299 65.4999L97.5199 63.3299V53.8799L86.6299 56.0499V65.4999Z" fill="white"/>
<path d="M86.6299 65.5101L97.5199 63.3401V63.3301L86.6299 65.5001V65.5101Z" fill="white"/>
<path d="M89.4899 53.08L86.6699 53.64L97.5199 51.48L89.4899 53.08Z" fill="white"/>
<path d="M97.52 51.4702L89.73 53.0302L97.52 51.4802V51.4702Z" fill="white"/>
<path d="M97.5202 51.48L89.7302 53.03L89.4902 53.08L97.5202 51.48Z" fill="white"/>
<path d="M52.8402 42.6601L58.5702 41.5101C57.6384 40.6742 56.9477 39.6037 56.5702 38.4101C55.1002 33.6701 57.2702 31.7301 58.2402 31.1201C56.5303 30.2525 54.626 29.8393 52.7102 29.9201C44.7102 32.6301 47.0802 40.2601 51.4002 42.9201L52.8202 42.6301L52.8402 42.6601Z" fill="white"/>
<path d="M67.6198 45.56H67.5298L67.1698 44.9C62.9398 44.5 60.1698 43.07 58.5698 41.52L52.8398 42.67L67.6198 45.59V45.56Z" fill="white"/>
<path d="M52.8401 42.6602H52.7901L51.3701 42.9502L52.8401 42.6602Z" fill="white"/>
<path d="M67.3699 46.1102L67.6199 45.5802L52.8399 42.6602L51.3999 43.0002L51.5899 43.1202C55.2953 45.5742 59.568 47.0374 63.9999 47.3702L68.5199 46.4602L67.3699 46.1102Z" fill="white"/>
<path d="M70.47 47.08L68.47 46.48L64 47.37C66.1598 47.5707 68.3369 47.4731 70.47 47.08Z" fill="white"/>
<path d="M58.6401 30.8901C58.4901 30.9537 58.3462 31.0307 58.2101 31.1201C59.5627 31.8346 60.6728 32.9343 61.4001 34.2801C62.4001 36.1201 63.6101 38.2801 64.6701 40.2801L69.8601 39.2801L70.4601 39.4001L70.9601 38.2901L68.9601 33.8701C68.9601 33.8701 65.9001 26.4501 53.0801 29.8701C54.2101 29.6101 58.6401 30.8901 58.6401 30.8901Z" fill="#A3ACB6"/>
<path d="M52.5698 29.9301H52.6798L52.9698 29.8301L52.5698 29.9301Z" fill="#A3ACB6"/>
<path d="M67.5599 44.93L67.8299 45.12L70.4599 39.37L69.8599 39.25L64.6699 40.25L67.1699 44.85L67.5599 44.93Z" fill="#A3ACB6"/>
<path d="M58.2102 31.12C58.3463 31.0306 58.4902 30.9536 58.6402 30.89C58.6402 30.89 54.2102 29.61 53.0602 29.8H52.9702L52.6802 29.9C54.5977 29.8253 56.5021 30.2455 58.2102 31.12Z" fill="#A3ACB6"/>
<path d="M67.5599 44.9302H67.1699L67.5299 45.5902H67.6199L67.8299 45.1502L67.5599 44.9302Z" fill="#A3ACB6"/>
<path d="M83.71 31.1201C84.71 31.7301 86.86 33.6701 85.39 38.4101C84.9478 39.7719 84.1171 40.9746 83 41.8701L87.26 42.7201L87.74 42.6201L90.21 43.1701L90.38 43.0701C94.84 40.5201 97.45 32.6701 89.28 29.9201C87.3509 29.8328 85.432 30.2462 83.71 31.1201Z" fill="#A3ACB6"/>
<path d="M74.3701 45.2901L87.2201 42.7201L83.0001 41.8701C80.5814 43.7074 77.6554 44.755 74.6201 44.8701L74.3701 45.2901Z" fill="#A3ACB6"/>
<path d="M87.2202 42.7201L90.0002 43.2701L90.1702 43.1701L87.7002 42.6201L87.2202 42.7201Z" fill="#A3ACB6"/>
<path d="M74.2598 45.48L74.5498 46.11H73.9298L73.5498 46.79L77.0198 47.48C81.6463 47.2758 86.1343 45.8397 90.0198 43.32L87.2398 42.77L74.3698 45.29L74.2598 45.48Z" fill="#A3ACB6"/>
<path d="M73.21 47.3402C74.476 47.4634 75.7495 47.4935 77.02 47.4302L73.55 46.7402C73.42 47.0002 73.3 47.1802 73.21 47.3402Z" fill="#A3ACB6"/>
<path d="M74.5502 46.11L74.2602 45.48C74.1502 45.69 74.0402 45.88 73.9302 46.06L74.5502 46.11Z" fill="#A3ACB6"/>
<path d="M76.9998 40.6701C78.2798 38.3901 79.6098 36.0101 80.5498 34.2801C81.2799 32.9365 82.3893 31.8375 83.7398 31.1201C83.6061 31.0323 83.4657 30.9554 83.3198 30.8901C83.3198 30.8901 87.7398 29.6101 88.8998 29.8001C76.0798 26.4201 73.0098 33.8001 73.0098 33.8001L71.0098 38.2201L71.6198 39.5501L76.9998 40.6701Z" fill="white"/>
<path d="M89.36 29.9298L89 29.8198L89.29 29.9198L89.36 29.9298Z" fill="white"/>
<path d="M70.3 46.0999L71.48 45.8699L68.48 45.6299L68.7 45.7999L70.3 46.0999Z" fill="white"/>
<path d="M74.3601 44.9298H74.5801L77.0001 40.6698L71.6001 39.5898L74.1301 45.1198L74.3601 44.9298Z" fill="white"/>
<path d="M72.2498 46.4901L72.9198 45.9801L71.4798 45.8701L70.2998 46.1001L72.2498 46.4901Z" fill="white"/>
<path d="M69.4 46.2798L70.3 46.0998L68.75 45.7998L69.4 46.2798Z" fill="white"/>
<path d="M72.2501 46.4901L70.2501 46.1001L69.3501 46.2801L70.3501 47.0601L72.8301 47.8301L73.1101 47.3401C72.5223 47.287 71.938 47.2002 71.3601 47.0801L72.2501 46.4901Z" fill="white"/>
<path d="M68.5301 45.6301L67.6201 45.5601L68.7501 45.7801L68.5301 45.6301Z" fill="white"/>
<path d="M68.7501 45.8001L67.6201 45.5801L67.3701 46.1101L68.5001 46.4601L69.4001 46.2801L68.7501 45.8001Z" fill="white"/>
<path d="M68.5 46.4598L70.5 47.0598L69.5 46.2798L68.5 46.4598Z" fill="white"/>
<path d="M71.57 39.5798L70.96 38.2598L70.46 39.3598L71.57 39.5798Z" fill="white"/>
<path d="M68.5299 45.6301L71.5299 45.8701L73.7199 45.4301L74.1499 45.1201L71.6199 39.5901L70.5099 39.3701L67.8799 45.1201L68.5299 45.6301Z" fill="white"/>
<path d="M73.67 45.4302L71.48 45.8702L72.92 45.9802L73.67 45.4302Z" fill="white"/>
<path d="M67.8301 45.1201L67.6201 45.5601L68.5301 45.6301L67.8301 45.1201Z" fill="white"/>
<path d="M83.29 30.8902C83.4359 30.9555 83.5764 31.0324 83.71 31.1202C85.4201 30.253 87.3243 29.8398 89.24 29.9202L88.95 29.8202H88.87C87.71 29.6102 83.29 30.8902 83.29 30.8902Z" fill="white"/>
<path d="M74.3701 45.2902L74.5801 44.9102H74.3601L74.1001 45.1002L74.1901 45.3102L74.3701 45.2902Z" fill="white"/>
<path d="M74.2599 45.48L74.3699 45.29H74.1899L74.2599 45.48Z" fill="white"/>
<path d="M72.25 46.49L73.55 46.74L73.93 46.06L72.93 45.98L72.25 46.49Z" fill="white"/>
<path d="M72.25 46.4902L71.46 47.0802C72.0378 47.2003 72.6221 47.2871 73.21 47.3402C73.3 47.1802 73.42 46.9802 73.55 46.7402L72.25 46.4902Z" fill="white"/>
<path d="M74.0999 45.1201L73.6699 45.4301L74.1899 45.3301L74.0999 45.1201Z" fill="white"/>
<path d="M73.9299 46.0601C74.0399 45.8801 74.1499 45.6901 74.2599 45.4801L74.1899 45.3301L73.6699 45.4301L72.9199 45.9801L73.9299 46.0601Z" fill="white"/>
</g>
<defs>
<linearGradient id="paint0_linear_1377_1468" x1="-6.5" y1="-40.5" x2="65" y2="156.5" gradientUnits="userSpaceOnUse">
<stop stop-color="#22262A"/>
<stop offset="1" stop-color="#0B0D0E"/>
</linearGradient>
<clipPath id="clip0_1377_1468">
<rect width="140" height="140" fill="white"/>
</clipPath>
</defs>
</svg>
