<svg width="17" height="17" viewBox="0 0 17 17" fill="none" xmlns="http://www.w3.org/2000/svg">
<path d="M3.95667 1.37685L8.25532 5.7352L12.554 1.37685C13.4495 0.468864 14.7033 0.468864 15.5988 1.37685C16.4944 2.28484 16.4944 3.55603 15.5988 4.46402L11.3002 8.82237L15.5988 13.1807C16.4944 14.0887 16.4944 15.3599 15.5988 16.2679C14.7033 17.1759 13.4495 17.1759 12.554 16.2679L8.25532 11.9095L3.95667 16.2679C3.06112 17.1759 1.80735 17.1759 0.911797 16.2679C0.0162449 15.3599 0.0162449 14.0887 0.911797 13.1807L5.21044 8.82237L0.911797 4.46402C0.0162449 3.55603 0.0162449 2.28484 0.911797 1.37685C1.80735 0.650462 3.06112 0.650462 3.95667 1.37685Z" fill="#30343D"/>
</svg>
