<svg width="373" height="351" viewBox="0 0 373 351" fill="none" xmlns="http://www.w3.org/2000/svg">
<path d="M106.207 223.824L188.285 146.96H176.346L94.5664 223.824H106.207Z" fill="#BB1917"/>
<path d="M86.5184 230.934L82.4951 234.674H95.5709L99.5942 230.934H86.5184Z" fill="#BB1917"/>
<path d="M45.0594 128.427L49.364 124.063H36.4501L32.1455 128.427H45.0594Z" fill="#BB1917"/>
<path d="M42.7412 118.02L38.4365 122.048H51.3504L55.9862 118.02H42.7412Z" fill="#BB1917"/>
<path d="M77.5096 97.8762L168.238 12.6022H155.324L64.5957 97.8762H77.5096Z" fill="#BB1917"/>
<path d="M49.3632 111.977L45.0586 116.005H57.9725L62.2771 111.977H49.3632Z" fill="#BB1917"/>
<path d="M29.828 130.441L25.8545 134.134H39.0995L42.7419 130.441H29.828Z" fill="#BB1917"/>
<path d="M55.9863 105.934L51.6816 109.962H64.5955L68.9002 105.934H55.9863Z" fill="#BB1917"/>
<path d="M62.2783 99.8905L57.9736 103.919H70.8875L75.5233 99.8905H62.2783Z" fill="#BB1917"/>
<path d="M162.973 345.328L166.553 341.699H155.812L152.232 345.328H162.973Z" fill="#BB1917"/>
<path d="M161.045 336.673L157.465 340.023H168.205L172.06 336.673H161.045Z" fill="#BB1917"/>
<path d="M189.961 319.92L265.417 249H254.677L179.221 319.92H189.961Z" fill="#BB1917"/>
<path d="M166.553 331.647L162.973 334.997H173.713L177.293 331.647H166.553Z" fill="#BB1917"/>
<path d="M150.305 347.004L147 350.075H158.016L161.045 347.004H150.305Z" fill="#BB1917"/>
<path d="M172.06 326.621L168.479 329.972H179.22L182.8 326.621H172.06Z" fill="#BB1917"/>
<path d="M177.293 321.595L173.713 324.946H184.453L188.308 321.595H177.293Z" fill="#BB1917"/>
<path d="M354.479 190.302C364.597 190.302 372.646 198.696 372.646 208.722C372.646 218.748 364.368 227.142 354.479 227.142C344.36 227.142 336.311 218.748 336.311 208.722C336.311 198.696 344.59 190.302 354.479 190.302ZM354.479 223.645C362.528 223.645 369.197 216.883 369.197 208.722C369.197 200.561 362.528 193.799 354.479 193.799C346.43 193.799 339.761 200.561 339.761 208.722C339.761 216.883 346.43 223.645 354.479 223.645Z" fill="#BB1917"/>
<path d="M15.1692 263.44C23.5023 263.44 30.1309 270.353 30.1309 278.61C30.1309 286.867 23.3129 293.779 15.1692 293.779C6.83608 293.779 0.207489 286.867 0.207489 278.61C0.207489 270.353 7.02547 263.44 15.1692 263.44ZM15.1692 290.899C21.7978 290.899 27.29 285.331 27.29 278.61C27.29 271.889 21.7978 266.321 15.1692 266.321C8.54058 266.321 3.04832 271.889 3.04832 278.61C3.04832 285.331 8.54058 290.899 15.1692 290.899Z" fill="#BB1917"/>
<path d="M268.957 293.377L273.255 297.735L277.554 293.377C278.45 292.469 279.703 292.469 280.599 293.377C281.494 294.285 281.494 295.556 280.599 296.464L276.3 300.822L280.599 305.181C281.494 306.089 281.494 307.36 280.599 308.268C279.703 309.176 278.45 309.176 277.554 308.268L273.255 303.91L268.957 308.268C268.061 309.176 266.807 309.176 265.912 308.268C265.016 307.36 265.016 306.089 265.912 305.181L270.21 300.822L265.912 296.464C265.016 295.556 265.016 294.285 265.912 293.377C266.807 292.65 268.061 292.65 268.957 293.377Z" fill="#30343D"/>
<path d="M19.2123 33.7718L24.0841 38.7113L28.9559 33.7718C29.9709 32.7427 31.3918 32.7427 32.4067 33.7718C33.4217 34.8008 33.4217 36.2415 32.4067 37.2706L27.535 42.21L32.4067 47.1495C33.4217 48.1786 33.4217 49.6192 32.4067 50.6483C31.3918 51.6774 29.9709 51.6774 28.9559 50.6483L24.0841 45.7088L19.2123 50.6483C18.1973 51.6774 16.7764 51.6774 15.7614 50.6483C14.7465 49.6192 14.7465 48.1786 15.7614 47.1495L20.6332 42.21L15.7614 37.2706C14.7465 36.2415 14.7465 34.8008 15.7614 33.7718C16.7764 32.9485 18.1973 32.9485 19.2123 33.7718Z" fill="#30343D"/>
<path d="M120.014 233.916L118.295 235.659L116.575 233.916C116.217 233.552 115.716 233.552 115.358 233.916C114.999 234.279 114.999 234.787 115.358 235.15L117.077 236.894L115.358 238.637C114.999 239 114.999 239.509 115.358 239.872C115.716 240.235 116.217 240.235 116.575 239.872L118.295 238.129L120.014 239.872C120.373 240.235 120.874 240.235 121.232 239.872C121.591 239.509 121.591 239 121.232 238.637L119.513 236.894L121.232 235.15C121.591 234.787 121.591 234.279 121.232 233.916C120.874 233.625 120.373 233.625 120.014 233.916Z" fill="#30343D"/>
<path d="M321.3 6.83561e-06L286 33.0573H291.135L326.307 6.83561e-06H321.3Z" fill="#BB1917"/>
</svg>
