<svg width="241" height="339" viewBox="0 0 241 339" fill="none" xmlns="http://www.w3.org/2000/svg">
<path d="M20.0594 116.427L24.364 112.063H11.4501L7.14551 116.427H20.0594Z" fill="#BB1917"/>
<path d="M17.7412 106.02L13.4365 110.048H26.3504L30.9862 106.02H17.7412Z" fill="#BB1917"/>
<path d="M52.5096 85.8762L143.238 0.602173H130.324L39.5957 85.8762H52.5096Z" fill="#BB1917"/>
<path d="M24.3632 99.9767L20.0586 104.005H32.9725L37.2771 99.9767H24.3632Z" fill="#BB1917"/>
<path d="M4.828 118.441L0.854492 122.134H14.0995L17.7419 118.441H4.828Z" fill="#BB1917"/>
<path d="M30.9863 93.9335L26.6816 97.9622H39.5955L43.9002 93.9335H30.9863Z" fill="#BB1917"/>
<path d="M37.2783 87.8905L32.9736 91.9192H45.8875L50.5233 87.8905H37.2783Z" fill="#BB1917"/>
<path d="M137.973 333.328L141.553 329.699H130.812L127.232 333.328H137.973Z" fill="#BB1917"/>
<path d="M136.045 324.673L132.465 328.023H143.205L147.06 324.673H136.045Z" fill="#BB1917"/>
<path d="M164.961 307.92L240.417 237H229.677L154.221 307.92H164.961Z" fill="#BB1917"/>
<path d="M141.553 319.647L137.973 322.997H148.713L152.293 319.647H141.553Z" fill="#BB1917"/>
<path d="M125.305 335.004L122 338.075H133.016L136.045 335.004H125.305Z" fill="#BB1917"/>
<path d="M147.06 314.621L143.479 317.972H154.22L157.8 314.621H147.06Z" fill="#BB1917"/>
<path d="M152.293 309.595L148.713 312.946H159.453L163.308 309.595H152.293Z" fill="#BB1917"/>
</svg>
