<svg width="373" height="104" viewBox="0 0 373 104" fill="none" xmlns="http://www.w3.org/2000/svg">
<path d="M354.272 0C364.39 0 372.439 8.39396 372.439 18.4201C372.439 28.4462 364.16 36.8402 354.272 36.8402C344.153 36.8402 336.104 28.4462 336.104 18.4201C336.104 8.39396 344.383 0 354.272 0ZM354.272 33.3427C362.321 33.3427 368.99 26.5809 368.99 18.4201C368.99 10.2593 362.321 3.49749 354.272 3.49749C346.223 3.49749 339.554 10.2593 339.554 18.4201C339.554 26.5809 346.223 33.3427 354.272 33.3427Z" fill="#BB1917"/>
<path d="M14.9621 73.1386C23.2952 73.1386 29.9238 80.0513 29.9238 88.3081C29.9238 96.5649 23.1058 103.478 14.9621 103.478C6.62905 103.478 0.000457689 96.5649 0.000457689 88.3081C0.000457689 80.0513 6.81844 73.1386 14.9621 73.1386ZM14.9621 100.597C21.5907 100.597 27.083 95.0288 27.083 88.3081C27.083 81.5874 21.5907 76.0189 14.9621 76.0189C8.33355 76.0189 2.84128 81.5874 2.84128 88.3081C2.84128 95.0288 8.33355 100.597 14.9621 100.597Z" fill="#BB1917"/>
</svg>
