<svg width="267" height="276" viewBox="0 0 267 276" fill="none" xmlns="http://www.w3.org/2000/svg">
<path d="M253.957 260.377L258.255 264.735L262.554 260.377C263.45 259.469 264.703 259.469 265.599 260.377C266.494 261.285 266.494 262.556 265.599 263.464L261.3 267.822L265.599 272.181C266.494 273.089 266.494 274.36 265.599 275.268C264.703 276.176 263.45 276.176 262.554 275.268L258.255 270.91L253.957 275.268C253.061 276.176 251.807 276.176 250.912 275.268C250.016 274.36 250.016 273.089 250.912 272.181L255.21 267.822L250.912 263.464C250.016 262.556 250.016 261.285 250.912 260.377C251.807 259.65 253.061 259.65 253.957 260.377Z" fill="#30343D"/>
<path d="M4.21228 0.771792L9.08409 5.71125L13.9559 0.771792C14.9709 -0.257264 16.3918 -0.257264 17.4067 0.771792C18.4217 1.80085 18.4217 3.24152 17.4067 4.27058L12.535 9.21005L17.4067 14.1495C18.4217 15.1786 18.4217 16.6192 17.4067 17.6483C16.3918 18.6774 14.9709 18.6774 13.9559 17.6483L9.08409 12.7088L4.21228 17.6483C3.19732 18.6774 1.77639 18.6774 0.761429 17.6483C-0.253531 16.6192 -0.253531 15.1786 0.761429 14.1495L5.63323 9.21005L0.761429 4.27058C-0.253531 3.24152 -0.253531 1.80085 0.761429 0.771792C1.77639 -0.0514528 3.19732 -0.0514528 4.21228 0.771792Z" fill="#30343D"/>
<path d="M105.014 200.916L103.295 202.659L101.575 200.916C101.217 200.552 100.716 200.552 100.358 200.916C99.9993 201.279 99.9993 201.787 100.358 202.15L102.077 203.894L100.358 205.637C99.9993 206 99.9993 206.509 100.358 206.872C100.716 207.235 101.217 207.235 101.575 206.872L103.295 205.129L105.014 206.872C105.373 207.235 105.874 207.235 106.232 206.872C106.591 206.509 106.591 206 106.232 205.637L104.513 203.894L106.232 202.15C106.591 201.787 106.591 201.279 106.232 200.916C105.874 200.625 105.373 200.625 105.014 200.916Z" fill="#30343D"/>
</svg>
