<svg width="12" height="12" viewBox="0 0 12 12" fill="none" xmlns="http://www.w3.org/2000/svg">
<path d="M0.569429 5.65166C0.613058 5.53914 0.678476 5.43634 0.76193 5.34916L5.34526 0.76583C5.43073 0.680362 5.5322 0.612565 5.64387 0.566309C5.75554 0.520054 5.87522 0.496246 5.9961 0.496246C6.2402 0.496246 6.47432 0.593219 6.64693 0.76583C6.7324 0.851299 6.80019 0.952765 6.84645 1.06444C6.8927 1.17611 6.91651 1.29579 6.91651 1.41666C6.91651 1.66077 6.81954 1.89489 6.64693 2.0675L3.62193 5.08333H10.5794C10.8225 5.08333 11.0557 5.17991 11.2276 5.35182C11.3995 5.52373 11.4961 5.75688 11.4961 6C11.4961 6.24311 11.3995 6.47627 11.2276 6.64818C11.0557 6.82009 10.8225 6.91667 10.5794 6.91667H3.62193L6.64693 9.9325C6.73285 10.0177 6.80104 10.1191 6.84758 10.2308C6.89412 10.3425 6.91808 10.4623 6.91808 10.5833C6.91808 10.7043 6.89412 10.8242 6.84758 10.9359C6.80104 11.0476 6.73285 11.1489 6.64693 11.2342C6.56171 11.3201 6.46033 11.3883 6.34862 11.4348C6.23692 11.4814 6.11711 11.5053 5.9961 11.5053C5.87508 11.5053 5.75527 11.4814 5.64357 11.4348C5.53186 11.3883 5.43048 11.3201 5.34526 11.2342L0.76193 6.65083C0.678476 6.56365 0.613058 6.46085 0.569429 6.34833C0.477746 6.12516 0.477746 5.87484 0.569429 5.65166Z" fill="#4C555E"/>
</svg>
