<svg width="97" height="24" viewBox="0 0 97 24" fill="none" xmlns="http://www.w3.org/2000/svg">
<path d="M55.5512 0.107978C56.7165 -0.0546317 57.8954 -0.0275301 59.0473 0.14863C59.0744 0.162181 59.1421 0.175732 59.1692 0.189283C60.1449 1.99154 61.107 3.80734 62.0826 5.6096C64.0204 5.94837 65.9446 6.30069 67.8824 6.63946H67.8959C68.4515 7.77773 68.8309 8.9973 69.0206 10.244C67.7333 11.721 66.3647 13.1167 65.0367 14.5802C65.2129 15.976 65.3755 17.3581 65.5516 18.7539C65.6058 19.2959 65.7143 19.8515 65.7007 20.4071V20.4342C64.7928 21.3285 63.7765 22.0874 62.6518 22.6836C60.8631 21.8163 59.0473 20.9762 57.245 20.1089C55.4157 20.9762 53.5863 21.857 51.7705 22.7378C50.7135 22.1958 49.7243 21.5047 48.8571 20.6781C49.101 18.6455 49.3313 16.6128 49.5753 14.5802C48.1524 13.0896 46.7702 11.5719 45.3203 10.122C45.4965 8.88889 45.9165 7.70997 46.445 6.59881L46.3637 6.80207C48.3963 6.4091 50.4154 6.01612 52.448 5.62315C52.6106 5.62315 52.6648 5.43344 52.7326 5.32503C53.6676 3.54988 54.6297 1.84248 55.5512 0.107978Z" fill="white"/>
<path d="M46.4583 6.55809C48.1657 3.08908 51.7024 0.541535 55.5508 0.10791C54.6294 1.84241 53.6673 3.54981 52.7458 5.28431C52.6645 5.39272 52.6239 5.58243 52.4613 5.58243C50.4286 5.9754 48.4096 6.36838 46.377 6.76135L46.4583 6.55809Z" fill="#D6161B"/>
<path d="M59.0479 0.148682C62.815 0.690713 66.2433 3.21116 67.883 6.63951C65.9452 6.31429 64.021 5.96197 62.0832 5.60965C61.1076 3.8074 60.1455 1.99159 59.1698 0.189334C59.1427 0.175783 59.075 0.148682 59.0479 0.148682Z" fill="#D6161B"/>
<path d="M6.13146 0.500983C6.30762 0.406127 6.51089 0.433229 6.7006 0.419678C8.52995 0.433229 10.3593 0.406127 12.1887 0.433229C12.5274 0.419678 12.7849 0.785549 12.6765 1.11077C11.2808 6.30072 9.87148 11.4907 8.50285 16.6806C8.3809 17.0058 8.66546 17.3717 9.00423 17.3446C12.7036 17.3582 16.3894 17.3446 20.0888 17.3446C20.4276 17.3175 20.7121 17.6834 20.6037 18.0086C20.3191 19.1062 20.021 20.2038 19.7229 21.3014C19.6823 21.586 19.4112 21.7757 19.1402 21.7486C13.1372 21.7486 7.12067 21.7486 1.11767 21.7486C0.738248 21.8028 0.385927 21.4099 0.534986 21.044C2.31014 14.3228 4.09885 7.6016 5.88755 0.866854C5.9282 0.731346 5.99596 0.582287 6.13146 0.500983Z" fill="white"/>
<path d="M27.7862 0.528063C28.0843 0.392555 28.4096 0.433207 28.7212 0.433207C34.128 0.433207 39.5212 0.433207 44.9144 0.433207C45.1177 0.433207 45.3616 0.460309 45.4971 0.636469C45.7681 0.921036 45.6462 1.38176 45.4971 1.69343C44.7518 2.56068 44.0878 3.48214 43.5323 4.48489C43.4374 4.66106 43.3019 4.86432 43.0715 4.85077C39.9142 4.86432 36.7433 4.85077 33.586 4.85077C33.2878 4.82366 32.9897 4.99983 32.9084 5.28439C32.651 6.20585 32.4206 7.14085 32.1767 8.0623C32.0547 8.42818 32.3528 8.84825 32.7323 8.84825C35.605 8.8618 38.4914 8.84825 41.3777 8.8618C41.7571 8.84825 42.0552 9.26832 41.9468 9.6342C41.6893 10.6641 41.4048 11.6804 41.1338 12.6967C41.0796 12.9812 40.8085 13.1981 40.524 13.1845C37.4479 13.1981 34.3584 13.1845 31.2823 13.1845C31.0113 13.1845 30.7538 13.3742 30.6996 13.6317C30.4286 14.648 30.1441 15.6643 29.8866 16.6806C29.7917 17.06 30.1576 17.453 30.537 17.3988C34.3584 17.3988 38.1661 17.3988 41.9875 17.3988C42.4075 17.3853 42.7328 17.8595 42.5701 18.2525C42.2991 19.2688 42.0146 20.2716 41.7435 21.2879C41.6622 21.5996 41.337 21.7757 41.0254 21.7486C34.8597 21.7486 28.6806 21.7486 22.515 21.7486C22.1626 21.7757 21.851 21.3963 21.9865 21.0575C23.7481 14.4447 25.5097 7.83194 27.2713 1.21915C27.3255 0.921036 27.5152 0.65002 27.7862 0.528063Z" fill="white"/>
<path d="M74.2655 1.0973C74.3333 0.704325 74.6991 0.406207 75.1056 0.433309C76.5691 0.433309 78.0326 0.433309 79.4825 0.433309C79.8213 0.406207 80.1465 0.595918 80.282 0.907587C82.1927 4.55275 84.1034 8.19791 86.0276 11.8295C86.0682 12.0328 86.3934 12.0057 86.407 11.8024C87.4504 8.0082 88.4803 4.21398 89.5101 0.419758C91.4343 0.419758 93.3585 0.419758 95.2963 0.419758C95.6486 0.365555 95.9603 0.744977 95.8248 1.0702C94.0632 7.72363 92.288 14.3635 90.5129 21.0034C90.4587 21.3964 90.1199 21.7487 89.6998 21.7352C88.2364 21.7352 86.7729 21.7352 85.2958 21.7352C84.9842 21.7487 84.7131 21.5454 84.5776 21.2744C82.6263 17.8325 80.6615 14.4042 78.6966 10.9623C78.6153 10.8268 78.5475 10.6371 78.3714 10.6235C78.1681 10.6506 78.1952 10.9081 78.1275 11.0571C77.2467 14.4584 76.3523 17.8732 75.4715 21.2744C75.4444 21.5183 75.2276 21.7487 74.9701 21.7352C73.0188 21.7352 71.0675 21.7216 69.1162 21.6945C68.8045 21.6945 68.6284 21.2609 68.8723 21.0576C71.1353 18.1577 72.2464 14.3771 71.9212 10.7048C71.8941 10.3389 71.8128 9.95952 71.9212 9.59364C72.7207 6.77508 73.4931 3.92941 74.2655 1.0973Z" fill="white"/>
<path d="M53.8029 7.50659C56.0117 7.50659 58.234 7.50659 60.4428 7.50659C61.1203 9.60697 61.7979 11.7073 62.489 13.7942C60.7138 15.1221 58.898 16.4095 57.1093 17.7239C55.3206 16.423 53.5319 15.1221 51.7432 13.8213C52.4207 11.7209 53.1118 9.60697 53.8029 7.50659Z" fill="#D6161B"/>
<path d="M45.3069 10.0679L45.334 10.095C46.7839 11.5449 48.1661 13.0761 49.589 14.5532C49.3586 16.5858 49.1147 18.6184 48.8708 20.651C46.0115 18.0222 44.6565 13.8892 45.3069 10.0679Z" fill="#D6161B"/>
<path d="M65.0498 14.5667C66.3642 13.1168 67.7329 11.7075 69.0337 10.2305C69.6029 13.8756 68.3698 17.7918 65.7138 20.38C65.7273 19.8244 65.6325 19.2824 65.5647 18.7268C65.3886 17.3446 65.2124 15.9625 65.0498 14.5667Z" fill="#D6161B"/>
<path d="M51.7842 22.7109C53.6135 21.8301 55.4293 20.9493 57.2587 20.082C59.0609 20.9493 60.8632 21.7759 62.6654 22.6567C59.332 24.4183 55.1312 24.4589 51.7842 22.7109Z" fill="#D6161B"/>
</svg>
