<svg width="190" height="100" viewBox="0 0 190 100" fill="none" xmlns="http://www.w3.org/2000/svg">
<path d="M183.84 12H13.4507C10.0485 12 7.29053 14.758 7.29053 18.1602V82.0729C7.29053 85.4751 10.0485 88.2331 13.4507 88.2331H183.84C187.242 88.2331 190 85.4751 190 82.0729V18.1602C190 14.758 187.242 12 183.84 12Z" fill="#626467"/>
<path d="M9.32747 12H71.791C75.2421 12 78.0358 14.8436 78.0358 18.3544V81.8836C78.0358 85.3945 75.2371 88.238 71.791 88.238H9.32249C5.87139 88.238 3.07764 85.3945 3.07764 81.8836V18.3544C3.07764 14.8436 5.87637 12 9.32747 12Z" fill="white"/>
<path d="M6.35441 12H69.8836C73.3945 12 76.238 14.8436 76.238 18.3544V81.8836C76.238 85.3945 73.3945 88.238 69.8836 88.238H6.35441C2.84355 88.2331 0 85.3895 0 81.8836V18.3544C0 14.8436 2.84355 12 6.35441 12Z" fill="#FDB913"/>
<path d="M42.5637 50.9382V37.2882L46.1194 36.4416V38.2294C46.1194 38.2294 47.0407 35.8739 49.1821 35.3311C49.5008 35.2265 49.8444 35.2066 50.1731 35.2663V38.7473C49.5307 38.7573 48.8982 38.8868 48.3056 39.1357C46.9909 39.6537 46.3286 40.7891 46.3286 42.5221V50.0568L42.5637 50.9332V50.9382Z" fill="#231F20"/>
<path d="M23.7843 55.3804C23.7843 55.3804 23.2066 54.5138 23.2066 51.4412V44.6436L21.374 45.0818V42.2831L23.2116 41.8498V38.7971L27.0014 37.9007V40.9534L29.6806 40.316V43.1147L27.0014 43.7522C27.0014 43.7522 27.0014 49.3198 27.0014 50.6743C27.0014 53.8216 27.838 54.4242 27.838 54.4242L23.7893 55.3853L23.7843 55.3804Z" fill="#231F20"/>
<path d="M30.0689 47.2581C30.0689 44.8328 30.4126 43.06 31.1546 41.7004C32.036 40.0869 33.4852 39.0362 35.5917 38.5581C39.75 37.6119 41.2489 40.072 41.1892 43.3737C41.1693 44.5539 41.1742 45.1266 41.1742 45.1266L33.8537 46.8497V46.9692C33.8537 49.2749 34.3368 50.3655 35.7959 50.0568C37.0558 49.7928 37.4094 49.001 37.509 48.025C37.5239 47.8656 37.5339 47.4672 37.5339 47.4672L40.9651 46.6455C40.9651 46.6455 40.975 46.9244 40.9651 47.2431C40.9352 48.5528 40.5567 51.7998 35.7859 52.9302C31.2691 54.0009 30.064 51.242 30.064 47.263L30.0689 47.2581ZM35.7411 41.1078C34.526 41.3817 33.8935 42.5719 33.8637 44.544L37.5488 43.6675C37.5538 43.5779 37.5538 43.3837 37.5538 43.0749C37.5488 41.5859 37.0857 40.7991 35.7411 41.1078Z" fill="#231F20"/>
<path d="M63.0013 39.2752C62.8619 35.1169 63.9376 31.8202 68.5739 30.7694C71.532 30.0971 72.6525 30.869 73.2202 31.611C73.768 32.3182 73.9771 33.2743 73.9771 34.6139V34.858L70.3517 35.7195C70.3517 35.7195 70.3517 35.2315 70.3517 35.2165C70.3517 33.6279 69.9135 33.0253 68.7582 33.3142C67.3837 33.6578 66.8309 34.9625 66.8309 37.5521C66.8309 38.4734 66.8309 38.6377 66.8309 38.7622C66.8309 41.3916 67.1895 42.5968 68.7731 42.2681C70.1426 41.9843 70.3318 40.7791 70.3567 39.7234C70.3567 39.559 70.3667 39.0262 70.3667 39.0262L73.9921 38.1696C73.9921 38.1696 73.9921 38.4385 73.9921 38.7324C73.9821 42.1835 72.1644 44.3597 68.7582 45.1515C64.0621 46.2521 63.1458 43.538 62.9964 39.2752" fill="#231F20"/>
<path d="M50.4568 45.0967C50.4568 41.9345 52.3093 40.9335 55.0981 39.7831C57.603 38.7473 57.6578 38.2294 57.6678 37.328C57.6827 36.5711 57.3291 35.9187 56.0841 36.2374C55.2276 36.4117 54.6001 37.1487 54.5752 38.0252C54.5553 38.2593 54.5453 38.4933 54.5503 38.7274L51.0345 39.559C51.0096 38.8569 51.0942 38.1597 51.2785 37.4824C51.8412 35.59 53.5095 34.3201 56.3879 33.6528C60.1279 32.7913 61.3728 34.4347 61.3778 36.9844V43.0301C61.3778 45.9533 61.9206 46.3816 61.9206 46.3816L58.4695 47.1983C58.2803 46.7999 58.1259 46.3865 58.0064 45.9583C58.0064 45.9583 57.2494 47.8606 54.6449 48.4731C51.906 49.1205 50.4568 47.4224 50.4568 45.0967ZM57.6429 40.7791C57.0602 41.1875 56.4477 41.546 55.8053 41.8548C54.6549 42.4175 54.137 43.1097 54.137 44.1804C54.137 45.1067 54.7097 45.7142 55.7505 45.4553C56.866 45.1714 57.6429 44.1306 57.6429 42.6815V40.7791Z" fill="#231F20"/>
<path d="M3.97406 64.9468C2.76393 64.9468 1.78288 63.9608 1.78786 62.7556C1.78786 62.3323 1.91236 61.919 2.14144 61.5654L2.16634 61.5356L2.20618 61.5256L7.36042 60.3105V64.2247L7.28074 64.2446C6.11046 64.5235 4.71607 64.8472 4.42723 64.907C4.27784 64.9369 4.12844 64.9518 3.97904 64.9518" fill="#231F20"/>
<path d="M3.97404 69.9517C2.76889 69.9517 1.78784 68.9756 1.78784 67.7655C1.78784 67.3422 1.90736 66.9288 2.14142 66.5753L2.16632 66.5404L2.20616 66.5304L7.3604 65.3153V69.2296L7.28073 69.2495C6.11044 69.5284 4.71605 69.8521 4.42721 69.9118C4.27782 69.9417 4.12842 69.9567 3.97902 69.9517" fill="#231F20"/>
<path d="M3.97404 74.9665C2.76391 74.9665 1.78784 73.9854 1.78784 72.7803C1.78784 72.357 1.90736 71.9436 2.14142 71.5901L2.16632 71.5502L7.3604 70.3252V74.2394L7.28073 74.2593C6.0457 74.5581 4.67621 74.8669 4.42721 74.9217C4.27782 74.9515 4.12842 74.9665 3.97902 74.9665" fill="#231F20"/>
<path d="M3.36646 60.1511V38.2543L7.36037 37.3131V59.2099L3.36646 60.1511Z" fill="#231F20"/>
<path d="M13.3114 58.2886C13.3114 56.9291 12.2108 55.8235 10.8513 55.8235C9.49178 55.8235 8.38623 56.9241 8.38623 58.2836V78.7512C8.39619 82.4314 11.3742 85.4144 15.0544 85.4194C16.9169 85.4194 22.0263 85.4094 22.0263 85.4094V76.8738C22.0263 72.2076 22.0263 67.4617 22.0263 67.3521C22.0263 66.2765 21.4885 65.2655 20.5921 64.6679L14.3771 60.4499C14.3771 60.4499 14.3771 69.613 14.3771 70.0313C14.3771 70.3252 14.1381 70.5592 13.8492 70.5592C13.5604 70.5592 13.3214 70.3202 13.3214 70.0313C13.3214 69.9268 13.3114 59.5535 13.3114 58.2836" fill="#231F20"/>
<path d="M16.638 43.0201C15.1092 43.3737 13.8144 44.3796 13.0823 45.769V44.2302L9.48682 45.0818V54.9072C10.7766 54.3993 12.2407 54.6532 13.2766 55.5696V49.2251C13.2766 47.7062 14.0335 46.4911 15.1142 46.2521C15.9259 46.0728 16.6081 46.3666 16.6081 47.8108V57.0685L20.3979 56.1821V46.3865C20.3979 44.0111 19.4816 42.3528 16.638 43.0201Z" fill="#231F20"/>
<path d="M71.6465 29.0065C70.3517 29.0065 69.3059 27.9607 69.3059 26.666C69.3059 25.3712 70.3517 24.3254 71.6465 24.3254C72.9413 24.3254 73.9871 25.3712 73.9871 26.666C73.9871 27.9607 72.9413 29.0065 71.6465 29.0065ZM71.6465 24.6192C70.516 24.6192 69.5997 25.5355 69.5997 26.666C69.5997 27.7964 70.516 28.7127 71.6465 28.7127C72.7769 28.7127 73.6932 27.7964 73.6932 26.666C73.6932 25.5355 72.7769 24.6192 71.6465 24.6192Z" fill="#231F20"/>
<path d="M70.7949 25.2716H71.8059C72.1694 25.2317 72.4931 25.4957 72.5329 25.8592C72.5379 25.909 72.5379 25.9588 72.5329 26.0086C72.5329 26.3771 72.3686 26.6659 72.0548 26.7108C72.3387 26.7456 72.4881 26.9 72.503 27.3034C72.508 27.4827 72.513 27.7068 72.518 27.886C72.518 27.9856 72.5678 28.0802 72.6524 28.135H72.1395C72.0897 28.0603 72.0648 27.9707 72.0648 27.881C72.0499 27.7117 72.0548 27.5474 72.0449 27.3432C72.0349 27.0295 71.9403 26.895 71.6266 26.895H71.2531V28.135H70.7999V25.2765L70.7949 25.2716ZM71.6166 26.5464C71.8457 26.5663 72.0499 26.397 72.0748 26.1679C72.0748 26.1381 72.0748 26.1132 72.0748 26.0833C72.0748 25.7795 71.9453 25.6202 71.6415 25.6202H71.2531V26.5464H71.6166Z" fill="#231F20"/>
<path d="M92.956 50.1116C92.8962 50.1713 92.8215 50.2062 92.7319 50.2062H86.8954C86.8057 50.2062 86.7659 50.251 86.7659 50.3357V51.5259C86.7659 52.0737 86.9153 52.5219 87.2141 52.8704C87.5129 53.224 87.9013 53.3983 88.3744 53.3983C88.7778 53.3983 89.1264 53.2688 89.4152 53.0149C89.7041 52.7609 89.8933 52.4322 89.9829 52.0239C90.0377 51.8496 90.1473 51.7599 90.3266 51.7599L92.6771 51.8645C92.7667 51.8645 92.8414 51.8944 92.9012 51.9591C92.9609 52.0189 92.9858 52.1035 92.9659 52.2081C92.8414 53.4382 92.3932 54.3844 91.6213 55.0467C90.8445 55.709 89.7638 56.0377 88.3744 56.0377C86.985 56.0377 85.7898 55.6542 84.9532 54.8873C84.1166 54.1204 83.6982 53.0796 83.6982 51.7599V46.4015C83.6982 45.1167 84.1166 44.0808 84.9532 43.299C85.7898 42.5171 86.9302 42.1237 88.3744 42.1237C89.8186 42.1237 90.959 42.5171 91.7956 43.299C92.6323 44.0808 93.0506 45.1167 93.0506 46.4015V49.8875C93.0506 49.9771 93.0207 50.0518 92.956 50.1116ZM87.2141 45.291C86.9153 45.6445 86.7659 46.0927 86.7659 46.6356V47.8258C86.7659 47.9154 86.8107 47.9602 86.8954 47.9602H89.8784C89.968 47.9602 90.0128 47.9154 90.0128 47.8258V46.6356C90.0128 46.0728 89.8634 45.6196 89.5646 45.276C89.2658 44.9324 88.8674 44.7631 88.3744 44.7631C87.8814 44.7631 87.5129 44.9374 87.2141 45.291Z" fill="white"/>
<path d="M94.9379 49.1056C94.8781 49.0459 94.8433 48.9712 94.8433 48.8815V46.8746C94.8433 46.785 94.8731 46.7103 94.9379 46.6505C94.9976 46.5907 95.0723 46.5559 95.162 46.5559H101.686C101.775 46.5559 101.85 46.5858 101.91 46.6505C101.97 46.7152 102.004 46.785 102.004 46.8746V48.8815C102.004 48.9712 101.975 49.0459 101.91 49.1056C101.85 49.1704 101.775 49.2002 101.686 49.2002H95.162C95.0723 49.2002 94.9976 49.1704 94.9379 49.1056Z" fill="white"/>
<path d="M114.026 37.4376C114.086 37.4974 114.121 37.5721 114.121 37.6617V39.6686C114.121 39.7583 114.091 39.833 114.026 39.8927C113.966 39.9525 113.892 39.9873 113.802 39.9873H110.451C110.361 39.9873 110.321 40.0322 110.321 40.1218V55.5148C110.321 55.6045 110.291 55.6792 110.226 55.7389C110.167 55.7987 110.092 55.8335 110.002 55.8335H107.572C107.482 55.8335 107.408 55.8037 107.348 55.7389C107.288 55.6742 107.253 55.6045 107.253 55.5148V40.1218C107.253 40.0322 107.209 39.9873 107.124 39.9873H103.957C103.867 39.9873 103.792 39.9575 103.733 39.8927C103.673 39.833 103.638 39.7583 103.638 39.6686V37.6617C103.638 37.5721 103.668 37.4974 103.733 37.4376C103.792 37.3778 103.867 37.343 103.957 37.343H113.807C113.897 37.343 113.971 37.3729 114.031 37.4376H114.026Z" fill="white"/>
<path d="M122.148 42.4424C122.288 42.5321 122.343 42.6616 122.308 42.8408L121.884 45.296C121.865 45.5051 121.745 45.5698 121.516 45.4802C121.267 45.4105 121.038 45.3756 120.829 45.3756C120.62 45.3756 120.425 45.4005 120.246 45.4553C119.753 45.525 119.355 45.8039 119.046 46.287C118.737 46.77 118.583 47.3477 118.583 48.015V55.4849C118.583 55.5746 118.553 55.6493 118.488 55.709C118.428 55.7738 118.354 55.8036 118.264 55.8036H115.834C115.744 55.8036 115.67 55.7738 115.61 55.709C115.55 55.6493 115.515 55.5746 115.515 55.4849V42.6516C115.515 42.562 115.545 42.4873 115.61 42.4275C115.67 42.3677 115.744 42.3329 115.834 42.3329H118.264C118.354 42.3329 118.428 42.3628 118.488 42.4275C118.548 42.4873 118.583 42.562 118.583 42.6516V43.8667C118.583 43.9364 118.603 43.9763 118.638 43.9862C118.672 43.9962 118.697 43.9663 118.717 43.8916C119.19 42.7462 119.967 42.1735 121.043 42.1735C121.521 42.1735 121.889 42.2632 122.153 42.4375L122.148 42.4424Z" fill="white"/>
<path d="M131.839 43.3388C132.701 44.1506 133.134 45.2113 133.134 46.536V55.5148C133.134 55.6045 133.104 55.6792 133.04 55.7389C132.98 55.7987 132.905 55.8335 132.816 55.8335H130.385C130.296 55.8335 130.221 55.8037 130.161 55.7389C130.101 55.6792 130.067 55.6045 130.067 55.5148V55.0118C130.067 54.9571 130.047 54.9222 130.012 54.9073C129.977 54.8923 129.942 54.9073 129.907 54.962C129.29 55.6841 128.393 56.0427 127.213 56.0427C126.212 56.0427 125.326 55.7588 124.559 55.1861C123.792 54.6135 123.408 53.5726 123.408 52.0587C123.408 50.5448 123.872 49.3496 124.793 48.6774C125.719 48.01 126.969 47.6764 128.553 47.6764H129.927C130.017 47.6764 130.057 47.6316 130.057 47.5419V46.8547C130.057 46.2222 129.897 45.7143 129.584 45.3358C129.265 44.9573 128.871 44.7681 128.393 44.7681C128.025 44.7681 127.716 44.8876 127.467 45.1266C127.218 45.3657 127.074 45.6844 127.019 46.0928C126.999 46.3019 126.889 46.4115 126.675 46.4115H124.116C123.906 46.4115 123.807 46.3069 123.827 46.0928C123.916 44.8976 124.385 43.9364 125.241 43.2143C126.093 42.4923 127.163 42.1337 128.448 42.1337C129.838 42.1337 130.963 42.5371 131.83 43.3488L131.839 43.3388ZM129.464 53.0049C129.867 52.6713 130.072 52.2032 130.072 51.6056V50.1016C130.072 50.012 130.027 49.9721 129.942 49.9721H128.568C127.97 49.9721 127.487 50.1365 127.114 50.4602C126.745 50.7889 126.561 51.257 126.561 51.8745C126.561 52.4223 126.7 52.8306 126.984 53.1045C127.263 53.3784 127.626 53.5129 128.065 53.5129C128.593 53.5129 129.061 53.3436 129.464 53.0099V53.0049Z" fill="white"/>
<path d="M143.891 43.2741C144.479 44.041 144.777 45.1267 144.777 46.536V55.5148C144.777 55.6045 144.748 55.6792 144.683 55.7389C144.623 55.7987 144.548 55.8335 144.459 55.8335H142.028C141.939 55.8335 141.864 55.8037 141.804 55.7389C141.745 55.6792 141.71 55.6045 141.71 55.5148V46.775C141.71 46.1426 141.58 45.6495 141.316 45.296C141.052 44.9424 140.674 44.7681 140.181 44.7681C139.688 44.7681 139.275 44.9524 138.991 45.3209C138.707 45.6894 138.567 46.2023 138.567 46.8547V55.5148C138.567 55.6045 138.538 55.6792 138.473 55.7389C138.408 55.7987 138.338 55.8335 138.249 55.8335H135.818C135.729 55.8335 135.654 55.8037 135.594 55.7389C135.535 55.6742 135.5 55.6045 135.5 55.5148V42.6566C135.5 42.567 135.53 42.4923 135.594 42.4325C135.654 42.3727 135.729 42.3379 135.818 42.3379H138.249C138.338 42.3379 138.413 42.3678 138.473 42.4325C138.533 42.4923 138.567 42.567 138.567 42.6566V43.1845C138.567 43.2393 138.587 43.2691 138.632 43.2791C138.677 43.2891 138.727 43.2592 138.777 43.1845C139.374 42.4823 140.211 42.1287 141.286 42.1287C142.432 42.1287 143.298 42.5122 143.886 43.2791L143.891 43.2741Z" fill="white"/>
<path d="M148.099 54.9819C147.272 54.3146 146.859 53.4083 146.859 52.2629V52.0786C146.859 51.989 146.889 51.9143 146.954 51.8545C147.013 51.7948 147.088 51.7599 147.178 51.7599H149.448C149.538 51.7599 149.613 51.7898 149.673 51.8545C149.732 51.9143 149.767 51.989 149.767 52.0786V52.2131C149.767 52.6364 149.932 52.99 150.255 53.2688C150.579 53.5527 150.982 53.6921 151.455 53.6921C151.928 53.6921 152.272 53.5627 152.536 53.2987C152.8 53.0348 152.929 52.7011 152.929 52.2978C152.929 51.9442 152.815 51.6504 152.586 51.4113C152.357 51.1723 152.113 50.993 151.849 50.8685C151.585 50.744 151.112 50.5448 150.425 50.261C149.424 49.8725 148.597 49.3795 147.954 48.7819C147.312 48.1843 146.988 47.2929 146.988 46.1127C146.988 44.9324 147.382 43.9165 148.164 43.2193C148.945 42.5221 150.006 42.1785 151.346 42.1785C152.685 42.1785 153.806 42.542 154.608 43.2741C155.409 44.0061 155.808 44.9872 155.808 46.2172C155.808 46.3069 155.778 46.3816 155.713 46.4413C155.648 46.5011 155.579 46.536 155.489 46.536H153.273C153.183 46.536 153.109 46.5061 153.049 46.4413C152.989 46.3816 152.954 46.3069 152.954 46.2172V46.0579C152.954 45.6346 152.81 45.281 152.516 45.0021C152.227 44.7233 151.859 44.5788 151.421 44.5788C150.982 44.5788 150.599 44.7233 150.325 45.0171C150.051 45.3109 149.917 45.6545 149.917 46.0579C149.917 46.3915 150.021 46.6754 150.235 46.9045C150.444 47.1335 150.683 47.3128 150.947 47.4473C151.211 47.5817 151.65 47.776 152.267 48.0399C153.004 48.3387 153.627 48.6325 154.13 48.9263C154.633 49.2152 155.071 49.6285 155.449 50.1663C155.828 50.7042 156.017 51.3665 156.017 52.1583C156.017 53.3386 155.604 54.2698 154.777 54.957C153.95 55.6443 152.83 55.9879 151.426 55.9879C150.021 55.9879 148.926 55.6542 148.099 54.9819Z" fill="white"/>
<path d="M163.666 42.4275C163.726 42.4873 163.761 42.562 163.761 42.6516V44.2103C163.761 44.3 163.731 44.3747 163.666 44.4344C163.602 44.4942 163.532 44.529 163.442 44.529H161.804C161.714 44.529 161.669 44.5739 161.669 44.6585V55.5098C161.669 55.5995 161.64 55.6742 161.575 55.7339C161.51 55.7937 161.44 55.8286 161.351 55.8286H158.945C158.856 55.8286 158.781 55.7987 158.721 55.7339C158.657 55.6742 158.627 55.5995 158.627 55.5098V44.6585C158.627 44.5689 158.582 44.529 158.492 44.529H157.646C157.556 44.529 157.481 44.4992 157.422 44.4344C157.362 44.3697 157.327 44.3 157.327 44.2103V42.6516C157.327 42.562 157.357 42.4873 157.422 42.4275C157.481 42.3677 157.556 42.3329 157.646 42.3329H158.492C158.582 42.3329 158.627 42.2881 158.627 42.1984V41.5361C158.627 39.9525 158.985 38.832 159.707 38.1846C160.429 37.5322 161.58 37.2185 163.168 37.2334H163.378C163.467 37.2334 163.542 37.2633 163.602 37.328C163.661 37.3878 163.696 37.4625 163.696 37.5521L163.641 39.3499C163.641 39.4395 163.612 39.5142 163.547 39.574C163.487 39.6338 163.412 39.6686 163.323 39.6686H163.188C162.66 39.6885 162.272 39.8579 162.028 40.1816C161.779 40.5052 161.659 41.0032 161.659 41.6755V42.2034C161.659 42.293 161.704 42.3379 161.794 42.3379H163.432C163.522 42.3379 163.597 42.3677 163.656 42.4325L163.666 42.4275Z" fill="white"/>
<path d="M174.886 50.1116C174.826 50.1713 174.752 50.2062 174.662 50.2062H168.826C168.736 50.2062 168.696 50.251 168.696 50.3357V51.5259C168.696 52.0737 168.845 52.5219 169.144 52.8704C169.443 53.224 169.832 53.3983 170.305 53.3983C170.708 53.3983 171.057 53.2688 171.345 53.0149C171.634 52.7609 171.823 52.4322 171.913 52.0239C171.968 51.8496 172.077 51.7599 172.257 51.7599L174.607 51.8645C174.697 51.8645 174.772 51.8944 174.831 51.9591C174.891 52.0189 174.916 52.1035 174.896 52.2081C174.772 53.4382 174.323 54.3844 173.552 55.0467C172.775 55.709 171.694 56.0377 170.305 56.0377C168.915 56.0377 167.72 55.6542 166.883 54.8873C166.047 54.1204 165.628 53.0796 165.628 51.7599V46.4015C165.628 45.1167 166.047 44.0808 166.883 43.299C167.72 42.5171 168.86 42.1237 170.305 42.1237C171.749 42.1237 172.889 42.5171 173.726 43.299C174.562 44.0808 174.981 45.1167 174.981 46.4015V49.8875C174.981 49.9771 174.951 50.0518 174.886 50.1116ZM169.144 45.291C168.845 45.6445 168.696 46.0927 168.696 46.6356V47.8258C168.696 47.9154 168.741 47.9602 168.826 47.9602H171.809C171.898 47.9602 171.943 47.9154 171.943 47.8258V46.6356C171.943 46.0728 171.794 45.6196 171.495 45.276C171.196 44.9324 170.798 44.7631 170.305 44.7631C169.812 44.7631 169.443 44.9374 169.144 45.291Z" fill="white"/>
<path d="M183.905 42.4424C184.044 42.5321 184.099 42.6616 184.064 42.8408L183.641 45.296C183.621 45.5051 183.501 45.5698 183.272 45.4802C183.023 45.4105 182.794 45.3756 182.585 45.3756C182.376 45.3756 182.182 45.4005 182.002 45.4553C181.509 45.525 181.111 45.8039 180.802 46.287C180.494 46.77 180.339 47.3477 180.339 48.015V55.4849C180.339 55.5746 180.309 55.6493 180.245 55.709C180.185 55.7738 180.11 55.8036 180.02 55.8036H177.59C177.501 55.8036 177.426 55.7738 177.366 55.709C177.306 55.6493 177.271 55.5746 177.271 55.4849V42.6516C177.271 42.562 177.301 42.4873 177.366 42.4275C177.426 42.3677 177.501 42.3329 177.59 42.3329H180.02C180.11 42.3329 180.185 42.3628 180.245 42.4275C180.304 42.4873 180.339 42.562 180.339 42.6516V43.8667C180.339 43.9364 180.359 43.9763 180.394 43.9862C180.429 43.9962 180.454 43.9663 180.474 43.8916C180.947 42.7462 181.724 42.1735 182.799 42.1735C183.277 42.1735 183.646 42.2632 183.91 42.4375L183.905 42.4424Z" fill="white"/>
</svg>
