<svg width="190" height="100" viewBox="0 0 190 100" fill="none" xmlns="http://www.w3.org/2000/svg">
<path d="M15.8333 75.7628V96.2809C15.8333 97.2672 16.2262 98.2132 16.9256 98.9107C17.625 99.6082 18.5736 100 19.5627 100H170.726C171.715 100 172.664 99.6082 173.363 98.9107C174.063 98.2132 174.456 97.2672 174.456 96.2809V75.7628H15.8333ZM79.275 54.5209C78.4803 54.5209 77.7825 54.6827 77.1862 55.0027C76.5999 55.3136 76.1148 55.7852 75.7882 56.3619H75.6319C75.7147 55.574 75.7567 54.8305 75.7567 54.1369V49.8103H73.2969V66.8525H75.7567V60.8397C75.7567 59.3223 75.9995 58.2389 76.4849 57.593C76.9692 56.946 77.7288 56.6237 78.7627 56.6237C79.5434 56.6237 80.1152 56.8541 80.4734 57.3138C80.8317 57.7757 81.0114 58.4728 81.0114 59.4061V66.8548H83.4829V58.9592C83.4841 55.9976 82.0814 54.5209 79.275 54.5209ZM121.726 54.5209C119.975 54.5209 118.616 55.0737 117.655 56.1745C116.691 57.2777 116.209 58.8114 116.209 60.7746C116.209 62.0383 116.432 63.1485 116.879 64.1039C117.326 65.0616 117.964 65.7947 118.795 66.3044C119.625 66.8164 120.58 67.0724 121.664 67.0724C123.395 67.0724 124.746 66.5173 125.717 65.406C126.686 64.2959 127.171 62.7528 127.171 60.7734C127.171 58.8603 126.684 57.3417 125.705 56.2129C124.728 55.0853 123.402 54.5209 121.726 54.5209ZM121.704 64.9696C119.73 64.9696 118.74 63.5709 118.74 60.7734C118.74 59.4386 118.972 58.4134 119.437 57.6978C119.901 56.9821 120.649 56.6225 121.682 56.6225C123.652 56.6225 124.634 58.0073 124.634 60.7734C124.637 63.5709 123.659 64.9696 121.704 64.9696ZM59.9719 55.5287C59.2204 54.8584 58.1095 54.5209 56.6368 54.5209C55.974 54.5209 55.2668 54.6105 54.5235 54.7909C53.8029 54.9587 53.1082 55.2225 52.4581 55.5752L53.2551 57.4127C53.7631 57.1618 54.2879 56.9464 54.8258 56.768C55.3756 56.5845 55.952 56.4922 56.5318 56.4945C57.2564 56.4945 57.7921 56.6854 58.1386 57.0682C58.484 57.4511 58.6579 58.0294 58.6579 58.8044V59.4514L56.6578 59.5178C54.8409 59.5771 53.4896 59.9227 52.6051 60.5581C51.7183 61.1935 51.2748 62.1349 51.2748 63.3847C51.2748 64.56 51.5934 65.4688 52.2329 66.1124C52.8712 66.7536 53.758 67.0759 54.8958 67.0759C55.7815 67.0759 56.5084 66.9432 57.0744 66.6744C57.6404 66.4091 58.2005 65.9064 58.7606 65.1686H58.8446L59.3359 66.856H61.0944V58.6962C61.0956 57.2556 60.721 56.2001 59.9719 55.5287ZM58.6346 62.1198C58.6346 63.0624 58.365 63.7931 57.8236 64.3156C57.2821 64.837 56.5668 65.1 55.6718 65.1C55.0568 65.1 54.597 64.951 54.2913 64.6566C53.9832 64.3599 53.8304 63.9421 53.8304 63.401C53.8304 62.6574 54.0929 62.1046 54.6204 61.7416C55.1467 61.3808 55.9892 61.1795 57.1491 61.1353L58.6346 61.069V62.1198ZM46.1124 52.8568C46.7495 52.8568 47.3528 52.9534 47.9293 53.1454C48.5057 53.3398 49.0519 53.5632 49.5676 53.8192L50.4662 51.6385C49.1405 50.9519 47.6959 50.6098 46.1334 50.6098C44.6467 50.6098 43.3515 50.9426 42.2499 51.607C41.146 52.2703 40.3035 53.2281 39.7212 54.4755C39.1389 55.7253 38.8472 57.1799 38.8472 58.8452C38.8472 61.4891 39.447 63.5197 40.6477 64.9405C41.8473 66.3614 43.5685 67.0712 45.8078 67.0712C47.3307 67.0712 48.6913 66.8327 49.892 66.3591V64.1143C49.2686 64.316 48.6363 64.4892 47.997 64.6333C47.3902 64.7695 46.76 64.8358 46.1112 64.8358C44.6106 64.8358 43.4647 64.3319 42.6735 63.3265C41.8812 62.3176 41.4844 60.8339 41.4844 58.8673C41.4844 56.9902 41.8963 55.5182 42.719 54.4534C43.544 53.3886 44.6748 52.8568 46.1124 52.8568ZM70.1964 60.785C69.7646 60.465 69.0691 60.1101 68.1134 59.7237C66.9757 59.2641 66.237 58.901 65.8975 58.638C65.5602 58.375 65.391 58.0539 65.391 57.6757C65.391 56.903 66.0398 56.5155 67.3374 56.5155C68.1881 56.5155 69.2395 56.7854 70.4893 57.3242L71.2839 55.3855C70.0781 54.8111 68.7578 54.5156 67.4215 54.5209C66.0468 54.5209 64.9593 54.8072 64.1599 55.3797C63.3606 55.9546 62.9603 56.7587 62.9603 57.7967C62.9603 58.6578 63.1972 59.3583 63.6687 59.8995C64.1389 60.4406 65.0409 60.9794 66.3747 61.5205C66.9238 61.7344 67.4589 61.9824 67.9769 62.2629C68.3608 62.4828 68.6362 62.6935 68.8042 62.9006C68.9723 63.1042 69.054 63.3603 69.054 63.6663C69.054 64.6205 68.2978 65.1023 66.7831 65.1023C65.6104 65.1023 64.3431 64.7741 62.9825 64.1166V66.3404C63.9184 66.828 65.1565 67.0736 66.6991 67.0736C68.2336 67.0736 69.4145 66.7559 70.2384 66.1263C71.0611 65.4945 71.4753 64.5856 71.4753 63.4021C71.4753 62.8203 71.3703 62.3188 71.1591 61.8963C70.9312 61.4549 70.6012 61.074 70.1964 60.785ZM136.531 54.2242C136.531 54.728 136.59 55.4146 136.708 56.2839H136.583C135.786 55.1062 134.629 54.5197 133.107 54.5197C131.657 54.5197 130.52 55.0725 129.7 56.178C128.879 57.2847 128.471 58.8312 128.471 60.8176C128.471 62.7959 128.875 64.3319 129.683 65.4293C130.494 66.5243 131.622 67.0724 133.066 67.0724C134.587 67.0724 135.743 66.4685 136.532 65.264H136.648L137.078 66.8525H139.005V49.8103H136.533V54.2253L136.531 54.2242ZM136.646 61.1993C136.632 62.5352 136.396 63.5011 135.935 64.098C135.474 64.6938 134.737 64.9894 133.726 64.9894C132.818 64.9894 132.137 64.6391 131.684 63.9328C131.23 63.2276 131.003 62.2036 131.003 60.8618C131.003 59.5026 131.238 58.4565 131.705 57.7245C132.172 56.9902 132.839 56.6225 133.705 56.6225C134.716 56.6225 135.46 56.9449 135.936 57.5849C136.411 58.2284 136.648 59.3141 136.648 60.8397L136.646 61.1993ZM151.243 59.9844C151.243 58.2831 150.799 56.946 149.913 55.9778C149.026 55.0073 147.82 54.5209 146.29 54.5209C144.643 54.5209 143.348 55.0876 142.406 56.2187C141.463 57.3522 140.992 58.9057 140.992 60.8863C140.992 62.8133 141.498 64.3261 142.516 65.4258C143.531 66.5243 144.94 67.0747 146.74 67.0747C147.446 67.0822 148.151 67.0194 148.844 66.8874C149.478 66.7577 150.091 66.544 150.667 66.252V64.1597C149.99 64.4751 149.355 64.7008 148.767 64.8346C148.179 64.9685 147.54 65.0371 146.856 65.0371C145.818 65.0371 145.011 64.7218 144.438 64.0899C143.865 63.458 143.56 62.555 143.528 61.3773H151.243V59.9844ZM143.57 59.5143C143.661 58.5217 143.941 57.7653 144.413 57.2474C144.885 56.7296 145.511 56.4701 146.292 56.4701C147.073 56.4701 147.689 56.7273 148.135 57.2416C148.582 57.7548 148.812 58.5135 148.827 59.5143H143.57ZM96.9619 54.7164C95.3913 54.7164 94.1567 55.2587 93.2558 56.3432C92.355 57.4278 91.9045 58.9406 91.9045 60.8839C91.9045 62.1174 92.1076 63.2055 92.5113 64.1469C92.9151 65.0895 93.4997 65.8121 94.2605 66.316C95.0214 66.8199 95.9 67.0724 96.9001 67.0724C98.4836 67.0724 99.7264 66.5255 100.627 65.4339C101.526 64.3436 101.977 62.825 101.977 60.8851C101.977 58.972 101.533 57.4662 100.644 56.3654C99.752 55.2657 98.5244 54.7164 96.9619 54.7164ZM99.8571 64.7113C99.1686 65.6271 98.1989 66.0856 96.9409 66.0856C95.6842 66.0856 94.7133 65.6259 94.026 64.7113C93.3387 63.7943 92.9944 62.5189 92.9944 60.8839C92.9944 59.2327 93.334 57.9561 94.0143 57.0543C94.6946 56.1524 95.6643 55.7021 96.9199 55.7021C98.1767 55.7021 99.1522 56.1547 99.8466 57.0612C100.541 57.9666 100.887 59.2397 100.887 60.8828C100.887 62.5201 100.544 63.7931 99.8571 64.7113ZM110.919 52.8568C111.555 52.8568 112.16 52.9534 112.736 53.1454C113.312 53.3398 113.859 53.5632 114.375 53.8192L115.274 51.6385C113.948 50.9519 112.503 50.6098 110.942 50.6098C109.454 50.6098 108.161 50.9426 107.057 51.607C105.954 52.2703 105.112 53.2281 104.528 54.4755C103.946 55.7253 103.654 57.1799 103.654 58.8452C103.654 61.4891 104.254 63.5197 105.455 64.9405C106.654 66.3614 108.376 67.0712 110.615 67.0712C112.137 67.0712 113.499 66.8327 114.699 66.3591V64.1143C114.076 64.316 113.443 64.4892 112.804 64.6333C112.185 64.77 111.552 64.8379 110.918 64.8358C109.418 64.8358 108.272 64.3319 107.481 63.3265C106.687 62.3176 106.291 60.8339 106.291 58.8673C106.291 56.9902 106.703 55.5182 107.526 54.4534C108.351 53.3886 109.482 52.8568 110.919 52.8568ZM87.7771 65.4502C87.4714 65.0104 87.3162 64.3354 87.3162 63.4219V55.8871H90.6582V54.9445H87.3162V52.0655H86.7829L86.259 54.7595L84.574 55.2529V55.8882H86.259V63.5767C86.259 64.7799 86.4994 65.6632 86.9766 66.2252C87.4551 66.7885 88.1972 67.0701 89.2031 67.0701C89.8601 67.0701 90.4377 66.9805 90.9418 66.8048V65.9297C90.4529 66.046 89.8799 66.1042 89.2241 66.1042C88.5671 66.1077 88.084 65.8889 87.7771 65.4502ZM92.8777 32.4854C92.8777 32.4854 94.1077 34.7115 99.2223 34.5521C104.171 34.3973 106.06 33.1696 106.06 33.1696L105.167 31.8791C105.167 31.8791 101.955 33.2406 98.7835 33.4187C95.0622 33.6293 92.8777 32.4854 92.8777 32.4854ZM83.9613 11.4658C87.3886 6.08374 91.3596 4.72572 96.1568 4.19974C100.955 3.67259 105.792 5.08181 105.792 5.08181C105.792 5.08181 105.699 4.47669 105.447 4.41152C105.255 4.36032 100.107 2.21914 94.1333 3.05001L93.5312 0H91.4261C91.4261 0 91.824 2.25755 92.0399 3.46312C91.3397 3.64466 90.6337 3.8739 89.9324 4.15551L89.1459 0H87.9883L88.9055 4.60935C88.7235 4.69779 88.5426 4.7874 88.3618 4.88282C81.722 8.389 81.4023 15.0394 81.0709 18.5189C80.5154 24.4048 81.8445 29.0095 81.8445 29.0095C81.8445 29.0095 80.4676 16.9525 83.9613 11.4658Z" fill="#02A1E3"/>
<path d="M107.234 40.2115L106.486 34.8806C106.486 34.8806 100.413 37.8015 94.6508 35.8151C89.7544 34.1266 89.4779 27.3051 90.1057 20.508C90.751 13.5236 95.0056 12.5414 98.5833 12.1237C101.625 11.7676 106.474 13.2687 106.474 13.2687L107.129 7.64929C107.129 7.64929 96.5366 4.0663 89.4674 8.80715C84.6947 12.0073 82.4694 17.5103 83.1894 28.2349C83.928 39.2293 90.6063 41.3752 95.9356 42.142L96.5179 45.2118H97.637L97.071 42.2538C97.8119 42.292 98.5546 42.2807 99.294 42.22L99.8086 45.2118H101.955L101.385 41.9465C103.392 41.5825 105.353 41.0007 107.234 40.2115Z" fill="#02A1E3"/>
<path d="M40.4984 89.8943C40.4984 90.8904 40.1379 91.6724 39.4144 92.2403C38.692 92.8082 37.6955 93.0921 36.4247 93.0921C35.1528 93.0921 34.1142 92.8943 33.3032 92.501V90.7682C33.8155 91.0091 34.3605 91.1976 34.9369 91.3361C35.5134 91.4734 36.0501 91.5421 36.5484 91.5421C37.2766 91.5421 37.8122 91.4036 38.1588 91.1278C38.5042 90.8509 38.6769 90.4808 38.6769 90.0165C38.6769 89.5976 38.5182 89.2438 38.2008 88.9506C37.8834 88.6596 37.2276 88.3152 36.2334 87.916C35.2088 87.5018 34.4853 87.0293 34.0664 86.4975C33.6463 85.9657 33.4363 85.3268 33.4363 84.5809C33.4363 83.6453 33.77 82.911 34.4363 82.3734C35.1026 81.8358 35.9965 81.5693 37.119 81.5693C38.1949 81.5693 39.2662 81.8044 40.3316 82.2745L39.7469 83.7698C38.7469 83.3509 37.8554 83.1426 37.0712 83.1426C36.4772 83.1426 36.0256 83.2706 35.7187 83.5301C35.4107 83.7885 35.2578 84.1294 35.2578 84.5542C35.2578 84.8451 35.3185 85.0953 35.4422 85.3012C35.5659 85.5072 35.7678 85.7039 36.049 85.8877C36.3314 86.0704 36.8378 86.3148 37.5706 86.6162C38.3956 86.9595 39.0001 87.2783 39.384 87.5739C39.7691 87.8707 40.0503 88.2058 40.23 88.5782C40.4097 88.9506 40.4984 89.3893 40.4984 89.8943ZM42.3748 82.214C42.3748 81.8917 42.4635 81.6438 42.6397 81.4704C42.8159 81.297 43.0691 81.2097 43.397 81.2097C43.7144 81.2097 43.9618 81.297 44.1392 81.4704C44.3166 81.6438 44.4041 81.8917 44.4041 82.214C44.4041 82.5212 44.3154 82.7621 44.1392 82.939C43.963 83.1158 43.7156 83.2043 43.397 83.2043C43.0691 83.2043 42.8159 83.1158 42.6397 82.939C42.4635 82.7621 42.3748 82.52 42.3748 82.214ZM44.2897 92.9362H42.4834V84.4587H44.2897V92.9362ZM54.0358 92.9362H52.2213V87.7089C52.2213 87.0596 52.0987 86.5755 51.8525 86.2555C51.6063 85.9366 51.2224 85.7772 50.6996 85.7772C50.003 85.7772 49.4907 86.003 49.1663 86.4556C48.8407 86.9083 48.6785 87.6612 48.6785 88.7132V92.9362H46.8721V84.4587H48.2864L48.5408 85.5701H48.633C48.8687 85.1674 49.2106 84.8544 49.6599 84.6356C50.121 84.4135 50.6275 84.3008 51.1395 84.3063C52.4465 84.3063 53.3123 84.7508 53.7371 85.6399H53.8608C54.1117 85.221 54.4652 84.894 54.9215 84.6589C55.3766 84.4238 55.9006 84.3063 56.4898 84.3063C57.5051 84.3063 58.2437 84.5623 58.707 85.0732C59.1703 85.584 59.4036 86.3649 59.4036 87.4122V92.9385H57.5973V87.7101C57.5973 87.0607 57.4736 86.5766 57.225 86.2566C56.9765 85.9378 56.5914 85.7784 56.0674 85.7784C55.3661 85.7784 54.8515 85.9971 54.5271 86.4335C54.2015 86.8699 54.0393 87.5413 54.0393 88.4455C54.0358 88.4455 54.0358 92.9362 54.0358 92.9362ZM66.2348 93.0921C65.1589 93.0921 64.3234 92.7058 63.7282 91.9342H63.6197C63.6921 92.6499 63.7282 93.0828 63.7282 93.2376V96.7088H61.9218V84.4599H63.3828C63.4237 84.6193 63.5077 84.9964 63.636 85.5945H63.7282C64.2918 84.7369 65.1379 84.3063 66.2651 84.3063C67.3258 84.3063 68.152 84.6903 68.7436 85.4572C69.3353 86.224 69.6317 87.2993 69.6317 88.6841C69.6317 90.0689 69.3306 91.1499 68.7285 91.9261C68.1275 92.7023 67.2967 93.0921 66.2348 93.0921ZM65.7972 85.776C65.0795 85.776 64.5567 85.9867 64.2253 86.4044C63.8951 86.8233 63.7294 87.4925 63.7294 88.4129V88.6806C63.7294 89.7128 63.8928 90.4599 64.2207 90.923C64.5486 91.3861 65.0842 91.6166 65.8275 91.6166C66.453 91.6166 66.9338 91.3617 67.2722 90.8497C67.6106 90.3388 67.7786 89.6104 67.7786 88.6643C67.7786 87.7136 67.6106 86.9944 67.2757 86.5068C66.9419 86.0216 66.4483 85.776 65.7972 85.776ZM73.5373 92.9362H71.7309V81.0096H73.5373V92.9362ZM74.8291 84.4599H76.7965L78.5259 89.2671C78.7873 89.9513 78.9612 90.5948 79.0487 91.1976H79.1093C79.1549 90.9172 79.2412 90.5762 79.3637 90.1748C79.4874 89.7733 80.1374 87.8683 81.316 84.4599H83.2682L79.6321 94.065C78.9717 95.8279 77.8689 96.7088 76.3274 96.7088C75.9272 96.7088 75.5386 96.6658 75.1593 96.5773V95.1518C75.4301 95.2123 75.7416 95.2449 76.0894 95.2449C76.9599 95.2449 77.5725 94.741 77.9261 93.7345L78.2435 92.9362L74.8291 84.4599ZM92.9618 93.0921C91.8859 93.0921 91.0504 92.7058 90.4553 91.9342H90.3468C90.4191 92.6499 90.4553 93.0828 90.4553 93.2376V96.7088H88.6489V84.4599H90.1099C90.1507 84.6193 90.2347 84.9964 90.3631 85.5945H90.4553C91.0189 84.7369 91.8649 84.3063 92.9921 84.3063C94.0529 84.3063 94.8791 84.6903 95.4707 85.4572C96.0623 86.224 96.3587 87.2993 96.3587 88.6841C96.3587 90.0689 96.0576 91.1499 95.4555 91.9261C94.8545 92.7023 94.0225 93.0921 92.9618 93.0921ZM92.5242 85.776C91.8066 85.776 91.2838 85.9867 90.9524 86.4044C90.6221 86.8233 90.4564 87.4925 90.4564 88.4129V88.6806C90.4564 89.7128 90.6198 90.4599 90.9477 90.923C91.2756 91.3861 91.8112 91.6166 92.5546 91.6166C93.18 91.6166 93.6608 91.3617 93.9992 90.8497C94.3376 90.3388 94.5056 89.6104 94.5056 88.6643C94.5056 87.7136 94.3376 86.9944 94.0027 86.5068C93.6678 86.0216 93.1742 85.776 92.5242 85.776ZM103.778 92.9362L103.417 91.7562H103.356C102.945 92.2729 102.533 92.6243 102.119 92.8105C101.703 92.9979 101.17 93.0909 100.52 93.0909C99.6844 93.0909 99.0321 92.8652 98.563 92.416C98.0939 91.9668 97.8594 91.3303 97.8594 90.5076C97.8594 89.6325 98.1849 88.975 98.8361 88.5293C99.4872 88.0859 100.478 87.8416 101.811 87.8008L103.28 87.7555V87.3028C103.28 86.7605 103.152 86.3555 102.899 86.0867C102.646 85.8179 102.252 85.6853 101.718 85.6853C101.283 85.6853 100.865 85.7481 100.465 85.8761C100.066 86.0041 99.6821 86.1554 99.3122 86.3288L98.7287 85.0406C99.2079 84.7935 99.717 84.6089 100.243 84.4913C100.752 84.3713 101.273 84.3085 101.795 84.304C102.877 84.304 103.693 84.539 104.244 85.0092C104.794 85.4793 105.07 86.2182 105.07 87.2248V92.935L103.778 92.9362ZM101.087 91.7108C101.744 91.7108 102.269 91.5281 102.667 91.1627C103.064 90.7973 103.263 90.2841 103.263 89.6255V88.8912L102.172 88.9366C101.323 88.9657 100.703 89.1077 100.316 89.3625C99.9283 89.6162 99.7346 90.0014 99.7346 90.5239C99.7346 90.9021 99.8466 91.1941 100.072 91.4024C100.298 91.6073 100.637 91.7108 101.087 91.7108ZM106.298 84.4599H108.267L109.996 89.2671C110.258 89.9513 110.432 90.5948 110.519 91.1976H110.58C110.627 90.9172 110.712 90.5762 110.834 90.1748C110.958 89.7733 111.608 87.8683 112.787 84.4599H114.739L111.104 94.065C110.443 95.8279 109.341 96.7088 107.798 96.7088C107.398 96.7088 107.009 96.6658 106.629 96.5773V95.1518C106.901 95.2123 107.211 95.2449 107.559 95.2449C108.429 95.2449 109.042 94.741 109.395 93.7345L109.712 92.9362L106.298 84.4599ZM123.549 93.0921C122.261 93.0921 121.284 92.7162 120.617 91.9692C119.948 91.2197 119.613 90.1457 119.613 88.7457C119.613 87.3202 119.963 86.224 120.662 85.4583C121.361 84.6915 122.372 84.3075 123.695 84.3075C124.591 84.3075 125.399 84.475 126.115 84.8055L125.569 86.2543C124.806 85.9576 124.174 85.8109 123.677 85.8109C122.207 85.8109 121.472 86.7849 121.472 88.7318C121.472 89.6825 121.655 90.397 122.02 90.8741C122.387 91.3524 122.925 91.591 123.632 91.591C124.436 91.591 125.197 91.392 125.914 90.9928V92.5638C125.593 92.7522 125.244 92.8896 124.88 92.9711C124.442 93.0568 123.996 93.0974 123.549 93.0921ZM133.233 92.9362L132.873 91.7562H132.812C132.402 92.2729 131.989 92.6243 131.574 92.8105C131.158 92.9979 130.625 93.0909 129.975 93.0909C129.14 93.0909 128.489 92.8652 128.019 92.416C127.55 91.9668 127.316 91.3303 127.316 90.5076C127.316 89.6325 127.641 88.975 128.293 88.5293C128.944 88.0859 129.936 87.8416 131.268 87.8008L132.736 87.7555V87.3028C132.736 86.7605 132.609 86.3555 132.356 86.0867C132.103 85.8179 131.708 85.6853 131.175 85.6853C130.74 85.6853 130.322 85.7481 129.923 85.8761C129.524 86.0041 129.139 86.1554 128.769 86.3288L128.185 85.0406C128.664 84.7932 129.173 84.6085 129.7 84.4913C130.209 84.3713 130.73 84.3085 131.253 84.304C132.334 84.304 133.149 84.539 133.701 85.0092C134.252 85.4793 134.527 86.2182 134.527 87.2248V92.935L133.233 92.9362ZM130.544 91.7108C131.2 91.7108 131.724 91.5281 132.124 91.1627C132.52 90.7973 132.719 90.2841 132.719 89.6255V88.8912L131.628 88.9366C130.777 88.9657 130.158 89.1077 129.771 89.3625C129.384 89.6162 129.19 90.0014 129.19 90.5239C129.19 90.9021 129.302 91.1941 129.528 91.4024C129.755 91.6073 130.092 91.7108 130.544 91.7108ZM142.758 90.5227C142.758 91.3512 142.455 91.9866 141.851 92.4276C141.245 92.8698 140.379 93.0909 139.252 93.0909C138.119 93.0909 137.21 92.9199 136.524 92.5778V91.0219C137.523 91.4816 138.454 91.712 139.315 91.712C140.427 91.712 140.984 91.3768 140.984 90.7077C140.991 90.5123 140.925 90.3213 140.8 90.1713C140.676 90.0281 140.474 89.8803 140.193 89.7267C139.811 89.529 139.418 89.3549 139.015 89.2054C138.036 88.826 137.375 88.449 137.028 88.0708C136.683 87.6926 136.509 87.2027 136.509 86.5988C136.509 85.8726 136.803 85.3094 137.391 84.9079C137.977 84.5076 138.775 84.3063 139.784 84.3063C140.783 84.3063 141.73 84.5088 142.621 84.9114L142.038 86.2694C141.119 85.8901 140.348 85.7016 139.724 85.7016C138.77 85.7016 138.294 85.9727 138.294 86.5138C138.294 86.7791 138.419 87.0037 138.666 87.1887C138.915 87.3714 139.458 87.6251 140.293 87.9475C140.996 88.2186 141.506 88.4665 141.822 88.6911C142.14 88.9156 142.376 89.1751 142.53 89.4684C142.682 89.7616 142.758 90.1142 142.758 90.5227ZM152.19 92.9362H150.376V87.7229C150.376 87.0689 150.245 86.5813 149.981 86.259C149.716 85.9378 149.297 85.776 148.724 85.776C147.966 85.776 147.409 86.0018 147.053 86.4545C146.697 86.9071 146.519 87.6647 146.519 88.7271V92.935H144.712V81.0096H146.519V84.0363C146.519 84.5216 146.487 85.0417 146.425 85.5922H146.542C146.788 85.1837 147.129 84.866 147.569 84.6414C148.006 84.4169 148.518 84.3051 149.101 84.3051C151.162 84.3051 152.191 85.3397 152.191 87.4098L152.19 92.9362ZM154.434 91.9785C154.434 91.5991 154.534 91.3128 154.735 91.115C154.934 90.9183 155.218 90.8206 155.588 90.8206C155.952 90.8206 156.231 90.9218 156.426 91.1278C156.621 91.3326 156.717 91.6154 156.717 91.9785C156.717 92.3415 156.619 92.629 156.422 92.8408C156.225 93.0525 155.947 93.1584 155.588 93.1584C155.224 93.1584 154.94 93.0572 154.738 92.8512C154.535 92.6487 154.434 92.3555 154.434 91.9785ZM156.264 89.5347H154.926L154.527 81.7311H156.656L156.264 89.5347Z" fill="white"/>
</svg>
