<svg width="190" height="100" viewBox="0 0 190 100" fill="none" xmlns="http://www.w3.org/2000/svg">
<path d="M59.6692 35.5605L49.518 64.8263H43.4295L33.2783 35.5605H39.2118L45.6905 56.6434L46.5512 59.6446H46.666L47.5268 56.6434L54.0857 35.5605H59.6692Z" fill="#00A1E3"/>
<path d="M70.6352 65.3882C63.3761 65.3882 60.0938 61.8706 60.0938 53.1654C60.0938 44.4603 63.3761 40.9082 70.6352 40.9082C77.8942 40.9082 81.0561 44.5004 81.0561 53.1654C81.0561 61.8304 77.9344 65.3882 70.6352 65.3882ZM70.6352 61.2106C74.5028 61.2106 75.9432 59.3342 75.9432 53.1769C75.9432 47.0196 74.5028 45.1431 70.6352 45.1431C66.7675 45.1431 65.2468 47.0139 65.2468 53.1769C65.2468 59.3399 66.7732 61.2106 70.6352 61.2106Z" fill="#00A1E3"/>
<path d="M104.285 56.7977C104.285 62.3008 101.158 65.2676 94.7191 65.2676C88.2806 65.2676 85.1934 62.1861 85.1934 56.7977V41.3672H90.1513V56.7117C90.1513 59.403 91.6376 60.8089 94.742 60.8089C97.8465 60.8089 99.3328 59.4431 99.3328 56.7117V41.3672H104.291L104.285 56.7977Z" fill="#00A1E3"/>
<path d="M124.226 46.4113C122.853 45.8374 121.382 45.5335 119.894 45.5161C115.171 45.5161 113.53 47.6221 113.53 53.0506C113.53 58.789 115.757 60.9754 119.779 60.9754C121.376 60.9913 122.952 60.6149 124.37 59.8793L124.72 63.8618C123.354 64.7627 121.208 65.348 118.706 65.348C111.918 65.348 108.377 61.4402 108.377 53.0506C108.377 45.2063 111.545 41 118.844 41C120.792 41.002 122.723 41.3598 124.542 42.0559L124.226 46.4113Z" fill="#00A1E3"/>
<path d="M143.238 64.8381V49.6142C143.238 46.8827 141.832 45.4366 138.785 45.4366C136.719 45.4366 134.923 46.3777 134.103 47.623V64.8381H129.145V34.2754L134.103 34V40.0139L134.028 43.1355L134.143 43.2159C135.841 41.6814 138.064 40.8595 140.352 40.9205C145.344 40.9205 148.236 44.0824 148.236 49.6257V64.8381H143.238Z" fill="#00A1E3"/>
<path d="M152.333 52.6613C152.333 45.2014 155.61 40.9492 162.404 40.9492C168.177 40.9492 171.889 44.3463 171.889 51.8522C171.89 52.6475 171.849 53.4423 171.769 54.2336H157.486C157.716 59.1514 159.781 60.8672 164.275 60.8672C166.446 60.8857 168.596 60.4477 170.587 59.5818L171.161 63.679C168.815 64.771 166.253 65.3184 163.666 65.28C155.765 65.2685 152.333 61.091 152.333 52.6613ZM167.322 50.8652C167.241 46.7278 165.371 45.1669 162.444 45.1669C159.047 45.1669 157.601 46.8885 157.366 50.8652H167.322Z" fill="#00A1E3"/>
<path d="M176.257 64.837V41.4932L180.239 41.258L180.67 45.6708H180.784C182.231 42.6294 184.652 40.9883 187.539 40.9883C188.37 40.9706 189.199 41.075 190 41.2981L189.685 46.3364C188.89 46.0836 188.062 45.9521 187.229 45.9462C183.832 45.9462 181.215 48.5974 181.215 53.0102V64.837H176.257Z" fill="#00A1E3"/>
<path d="M35.3962 64.8368H10.4801C10.2356 64.8355 9.99744 64.7587 9.7982 64.617C9.59896 64.4752 9.44831 64.2755 9.36682 64.0449L0.064899 37.0745C-0.0372938 36.7797 -0.0182054 36.4564 0.117966 36.1757C0.254136 35.895 0.496235 35.6799 0.791007 35.5777L0.793654 35.5768C0.917635 35.5354 1.04742 35.5141 1.17812 35.5137H26.077C26.3215 35.515 26.5596 35.5918 26.7589 35.7336C26.9581 35.8753 27.1088 36.0751 27.1903 36.3056L36.4922 63.276C36.6021 63.5599 36.5948 63.8758 36.4718 64.1542C36.3488 64.4326 36.1202 64.6508 35.8364 64.7607L35.8323 64.7623C35.6931 64.8152 35.545 64.8405 35.3962 64.8368Z" fill="#00A1E3"/>
<path d="M10.876 49.8375C10.876 44.168 13.3722 40.9258 18.5367 40.9258C22.9324 40.9258 25.7556 43.5138 25.7556 49.2178C25.7709 49.8216 25.7421 50.4257 25.6696 51.0253H14.7666C14.9445 54.7725 16.4881 56.0751 19.9312 56.0751C21.585 56.0874 23.2231 55.7531 24.7399 55.0939L25.1875 58.2156C23.4015 59.0436 21.4521 59.4593 19.4836 59.4321C13.4869 59.4321 10.876 56.253 10.876 49.8375ZM22.2839 48.4718C22.2208 45.3214 20.7977 44.1336 18.5712 44.1336C15.9832 44.1336 14.8871 45.4419 14.7092 48.4718H22.2839Z" fill="white"/>
</svg>
