<svg width="190" height="100" viewBox="0 0 190 100" fill="none" xmlns="http://www.w3.org/2000/svg">
<path d="M125.828 59.3241C123.4 59.3241 121.587 58.1324 121.08 56.0305C120.599 58.1324 118.786 59.3241 116.359 59.3241C112.362 59.3241 110.385 56.6954 110.385 53.1306V42.4931H114.28V53.3698C114.28 55.0955 114.892 56.2428 116.707 56.2428C118.44 56.2428 119.133 55.0955 119.16 53.3698V42.4931H123.029V53.3698C123.029 55.0955 123.748 56.2428 125.481 56.2428C127.296 56.2428 127.907 55.0955 127.907 53.3698V42.4931H131.802V53.1317C131.801 56.6964 129.827 59.3241 125.828 59.3241ZM143.543 59.0612V57.8902C142.609 58.9025 141.117 59.3241 139.729 59.3241C137.168 59.3241 134.69 57.7603 134.69 54.911C134.69 51.8812 137.063 50.8163 139.891 50.8163H143.543V50.3638C143.543 48.2876 141.784 48.0763 140.181 48.0763C138.581 48.0763 137.382 48.3691 136.422 48.8464L135.489 46.3455C136.156 46.0032 137.968 45.0991 141.035 45.0991C144.449 45.0991 147.436 47.1217 147.436 50.4978V59.0602H143.543V59.0612ZM143.543 53.0492H140.876C139.408 53.0492 138.581 53.5811 138.581 54.6728C138.581 55.7635 139.489 56.3511 140.529 56.3511C142.476 56.3511 143.543 55.2048 143.543 54.5656V53.0492ZM150.874 59.0551V39.4685H154.699V59.0551H150.874ZM158.214 59.0551V39.4685H162.039V59.0551H158.214ZM168.672 53.4244V53.6636C168.672 55.7119 170.246 56.3521 171.899 56.3521C173.499 56.3521 175.177 55.814 176.354 55.2584L177.447 57.8912C176.78 58.2376 174.514 59.3251 171.444 59.3251C167.578 59.3251 164.779 56.9603 164.779 53.3925V51.0318C164.779 47.4392 167.578 45.1012 171.444 45.1012C175.339 45.1012 178.139 47.466 178.139 51.0318L178.113 53.3853L168.672 53.4244ZM171.444 48.0495C170.112 48.0495 168.672 48.6082 168.672 50.9225H174.247C174.246 48.6082 172.806 48.0495 171.444 48.0495ZM188.431 59.0612C185.072 59.0612 182.271 57.0387 182.271 54.0615V48.4505H179.845V45.394H182.271V41.1891H186.139V45.3682H189.979V48.4505H186.139V54.2729C186.139 55.2584 187.096 55.9769 188.405 55.9769H189.979V59.0612H188.431Z" fill="white"/>
<path d="M51.5735 53.4246V53.6638C51.5735 55.7121 53.1468 56.3523 54.7977 56.3523C56.4 56.3523 58.0787 55.8142 59.2541 55.2585L60.3478 57.8914C59.68 58.2377 57.413 59.3253 54.3459 59.3253C50.4798 59.3253 47.6804 56.9605 47.6804 53.3927V51.032C47.6804 47.4394 50.4787 45.1014 54.3459 45.1014C58.239 45.1014 61.0404 47.4662 61.0404 51.032V53.4246H51.5735ZM54.3459 48.0497C53.0124 48.0497 51.5735 48.6084 51.5735 50.9227H57.1473C57.1473 48.6084 55.7063 48.0497 54.3459 48.0497ZM63.1513 59.0614V56.642L71.02 45.5766H63.7643V42.4933H76.1122V44.9148L68.1649 55.9771H76.4864V59.0614H63.1513ZM82.6268 53.4246V53.6638C82.6268 55.7121 84.1991 56.3523 85.8531 56.3523C87.4522 56.3523 89.1331 55.8142 90.3074 55.2585L91.4001 57.8914C90.7323 58.2377 88.4674 59.3253 85.3993 59.3253C81.531 59.3253 78.7327 56.9605 78.7327 53.3927V51.032C78.7327 47.4394 81.531 45.1014 85.3993 45.1014C89.2933 45.1014 92.0937 47.4662 92.0937 51.032V53.4246H82.6268ZM85.3993 48.0497C84.0657 48.0497 82.6268 48.6084 82.6268 50.9227H88.1996C88.1996 48.6084 86.7596 48.0497 85.3993 48.0497ZM97.9787 53.4246V53.6638C97.9787 55.7121 99.5521 56.3523 101.205 56.3523C102.804 56.3523 104.485 55.8142 105.659 55.2585L106.753 57.8914C106.085 58.2377 103.819 59.3253 100.752 59.3253C96.884 59.3253 94.0847 56.9605 94.0847 53.3927V51.032C94.0847 47.4394 96.884 45.1014 100.752 45.1014C104.645 45.1014 107.447 47.4662 107.447 51.032V53.4246H97.9787ZM100.752 48.0497C99.4187 48.0497 97.9787 48.6084 97.9787 50.9227H103.553C103.553 48.6084 102.112 48.0497 100.752 48.0497Z" fill="white"/>
<path d="M31.1153 52.7435V56.97H14.5756C13.4303 56.97 12.4513 55.9433 12.4513 54.8021C12.4513 53.662 13.3786 52.7332 14.5239 52.7332L31.1153 52.7435ZM14.5756 44.2903C13.4303 44.2903 12.4048 45.315 12.4048 46.4552C12.4048 47.5963 13.3786 48.6035 14.5239 48.6035L31.1153 48.62V44.2903H14.5756ZM11.2853 61.0007C8.85288 61.0007 6.88259 60.0554 6.88259 56.9948C6.88259 52.9424 10.8831 54.0671 10.8831 50.6694C10.8831 47.2706 6.77301 48.5035 6.77301 44.4512C6.77301 41.3905 8.85288 40.337 11.2853 40.337L33.0794 40.27V34.2105H10.3373C4.80582 34.2105 0.225354 37.1918 0.225354 43.3636C0.225354 48.6025 4.16284 48.6025 4.16284 50.6694C4.16284 52.7352 0 52.6806 0 57.9205C0 64.0944 4.9092 67.0725 10.4407 67.0725H33.1828L33.1714 61.0007H11.2853Z" fill="#03C5D3"/>
</svg>
